<?xml version="1.0" encoding="UTF-8" standalone="no"?>
<!DOCTYPE svg PUBLIC "-//W3C//DTD SVG 1.1//EN" "http://www.w3.org/Graphics/SVG/1.1/DTD/svg11.dtd">
<svg width="100%" height="100%" viewBox="0 0 512 512" version="1.1" xmlns="http://www.w3.org/2000/svg" xmlns:xlink="http://www.w3.org/1999/xlink" xml:space="preserve" xmlns:serif="http://www.serif.com/" style="fill-rule:evenodd;clip-rule:evenodd;stroke-linecap:round;stroke-linejoin:round;stroke-miterlimit:1.5;">
    <g transform="matrix(1,0,0,0.9056,-7.66105,95.0901)">
        <g id="Layer1">
            <g>
                <path d="M298.451,54.059C308.061,54.059 315.852,62.662 315.852,73.274L315.852,423.398C315.852,433.404 308.507,441.515 299.445,441.515L211.759,441.515C202.213,441.515 194.474,432.97 194.474,422.428L194.474,75.626C194.474,69.906 196.532,64.42 200.195,60.376C203.858,56.331 208.825,54.059 214.006,54.059L298.451,54.059Z" style="fill:rgb(149,149,149);"/>
            </g>
        </g>
    </g>
    <g id="Layer4" transform="matrix(1.48452,0,0,1,-117.036,0.859457)">
        <g transform="matrix(1.22838,0,0,1.68293,-61.6633,-122.49)">
            <path d="M264.047,115.273C272.083,149.662 274.682,155.413 274.682,155.413L226.467,155.413C226.467,155.413 229.16,150.032 237.196,115.643C241.105,98.918 250.578,87.79 250.578,87.79C250.578,87.79 259.92,97.609 264.047,115.273Z" style="fill:rgb(214,177,89);stroke:rgb(214,177,89);stroke-width:1.75px;"/>
        </g>
        <g transform="matrix(0.56018,0,0,0.4886,122.139,10.5972)">
            <path d="M221.408,26.953C227.689,37.471 232.899,49.313 237.144,62.35C241.672,75.253 245.888,89.473 248.963,105.056C249.242,106.47 249.154,107.817 249.42,109.254L193.396,109.254C196.729,93.754 200.894,78.297 206.029,62.892C210.532,50.367 215.565,38.307 221.408,26.953Z" style="fill:rgb(37,177,89);stroke:rgb(37,177,89);stroke-width:1.47px;"/>
        </g>
    </g>
    <g id="Layer11" serif:id="Layer1" transform="matrix(0.777375,0,0,0.245944,56.583,61.6159)">
        <g transform="matrix(0.96625,0,0,1.14084,0.0860805,111.62)">
            <path d="M292.685,54.059C305.48,54.059 315.852,81.826 315.852,116.079L315.852,383.039C315.852,415.335 306.073,441.515 294.009,441.515L217.486,441.515C204.777,441.515 194.474,413.934 194.474,379.911L194.474,123.67C194.474,85.225 206.116,54.059 220.477,54.059L292.685,54.059Z" style="fill:rgb(149,149,149);"/>
        </g>
        <g transform="matrix(1.29775,0,0,4.06596,-74.988,-250.528)">
            <path d="M193.507,149.543C193.809,149.053 195.475,147.772 195.657,147.631C201.493,143.142 201.603,143.298 208.277,140.157C203.451,142.443 202.731,142.884 196.387,149.439C199.68,146.037 205.274,142.145 208.799,140.018C202.192,143.602 202.281,143.712 196.353,148.501C200.739,144.114 201.091,144.57 205.948,140.713C200.347,144.234 200.41,144.314 197.246,147.613C203.713,142.673 204.101,143.22 207.026,140.539C204.018,141.918 203.432,142.148 201.185,144.468C203.295,142.665 203.329,142.749 205.531,141.026C202.314,144.622 201.968,144.236 198.647,147.771" style="fill:none;stroke:rgb(149,149,149);stroke-width:0.82px;"/>
        </g>
        <g transform="matrix(-1.25395,0,0,4.06596,559.007,-250.167)">
            <path d="M193.507,149.543C193.809,149.053 195.475,147.772 195.657,147.631C201.493,143.142 201.603,143.298 208.277,140.157C203.451,142.443 202.731,142.884 196.387,149.439C199.68,146.037 205.274,142.145 208.799,140.018C202.192,143.602 202.281,143.712 196.353,148.501C200.739,144.114 201.091,144.57 205.948,140.713C200.347,144.234 200.41,144.314 197.246,147.613C203.713,142.673 204.101,143.22 207.026,140.539C204.018,141.918 203.432,142.148 201.185,144.468C203.295,142.665 203.329,142.749 205.531,141.026C202.314,144.622 201.968,144.236 198.647,147.771" style="fill:none;stroke:rgb(149,149,149);stroke-width:0.83px;"/>
        </g>
    </g>
    <g id="Layer2">
        <g transform="matrix(1,0,0,0.641729,-0.296207,165.334)">
            <rect x="187.653" y="438.742" width="120.338" height="28.826" style="fill:rgb(63,63,63);stroke:rgb(63,63,63);stroke-width:1.19px;"/>
        </g>
        <g transform="matrix(1.21115,0,0,0.789045,-54.568,34.3338)">
            <rect x="212.831" y="125.032" width="74.482" height="11.416" style="fill:rgb(63,63,63);stroke:rgb(63,63,63);stroke-width:0.98px;"/>
        </g>
    </g>
</svg>
