<svg xmlns="http://www.w3.org/2000/svg" viewBox="0 0 500 500" width="500" height="500"><defs></defs><g>
<g>
	<g>
		<path d="M253.789483,3.174302C253.789483,3.174302 -0,500 -0,500 C-0,500 96.938956,1303.880867 96.938956,1303.880867 C96.938956,1303.880867 410.640009,1303.880867 410.640009,1303.880867 C410.640009,1303.880867 507.578966,500 507.578966,500 C507.578966,500 253.789483,3.174302 253.789483,3.174302 Z" transform="matrix(1,0,0,1,0,0)" fill="#ffffff" stroke="#000000" stroke-width="2"/>
		<g/>
		<path d="M-0,489.600037C-0,489.600037 500,493.896331 500,493.896331 " transform="matrix(1,0,0,1,0,0)" fill="none" stroke="#000000" stroke-width="20"/>
		<path d="M500,493.896331C500,493.896331 256.774291,-0.051948 256.774291,-0.051948 " transform="matrix(1,0,0,1,0,0)" fill="none" stroke="#000000" stroke-width="20"/>
		<path d="M-0,489.600037C-0,489.600037 256.774291,-0.051948 256.774291,-0.051948 " transform="matrix(1,0,0,1,0,0)" fill="none" stroke="#000000" stroke-width="20"/>
	</g>
</g></g></svg>