<?xml version="1.0" encoding="UTF-8" standalone="no"?>
<!-- Created with Inkscape (http://www.inkscape.org/) -->

<svg
   width="512"
   height="512"
   viewBox="0 0 512 512"
   version="1.1"
   id="svg1"
   inkscape:version="1.4 (86a8ad7, 2024-10-11)"
   sodipodi:docname="crater.svg"
   xmlns:inkscape="http://www.inkscape.org/namespaces/inkscape"
   xmlns:sodipodi="http://sodipodi.sourceforge.net/DTD/sodipodi-0.dtd"
   xmlns="http://www.w3.org/2000/svg"
   xmlns:svg="http://www.w3.org/2000/svg">
  <sodipodi:namedview
     id="namedview1"
     pagecolor="#ffffff"
     bordercolor="#000000"
     borderopacity="0.25"
     inkscape:showpageshadow="2"
     inkscape:pageopacity="0.0"
     inkscape:pagecheckerboard="0"
     inkscape:deskcolor="#d1d1d1"
     inkscape:document-units="px"
     showguides="false"
     inkscape:zoom="1.6308594"
     inkscape:cx="255.69341"
     inkscape:cy="256"
     inkscape:window-width="1920"
     inkscape:window-height="1200"
     inkscape:window-x="114"
     inkscape:window-y="114"
     inkscape:window-maximized="0"
     inkscape:current-layer="layer1" />
  <defs
     id="defs1" />
  <g
     inkscape:label="Layer 1"
     inkscape:groupmode="layer"
     id="layer1">
    <path
       style="fill:#ffffff;stroke:none;stroke-width:20.5454"
       d="m 215.09562,252.3748 c -0.089,-0.62735 -0.73864,-3.96509 -0.52308,-5.26745 0.70927,-4.28545 7.76201,-10.37017 10.98483,-12.64192 0.63881,-0.4503 1.45782,-0.59709 2.09234,-1.0535 2.94138,-2.11568 5.66194,-5.59982 7.84631,-8.42794 7.24279,-9.37731 15.21389,-26.17663 26.67744,-30.02454 2.19295,-0.7361 2.49059,0.92776 3.66161,2.10698 0.61646,0.62077 1.47588,0.95946 2.09235,1.58024 2.02191,2.03606 8.27043,10.70576 10.46174,11.58842 2.97943,1.20011 7.02163,-2.0801 9.41557,-3.68722 0.41034,-0.27548 0.60507,-0.8314 1.04617,-1.0535 3.10182,-1.56176 8.0667,-2.49201 11.50792,-2.10699 3.28127,0.36714 5.22677,3.35091 8.36939,4.21398 0.84109,0.23099 1.76439,-0.19045 2.61544,0 1.5224,0.34068 2.83063,1.32782 4.18469,2.10699 2.68088,1.54264 3.43224,3.64872 6.80013,4.21397 10.80636,1.81366 17.32939,-7.14739 27.20053,-8.9547 2.1797,-0.39908 5.09356,-1.08806 7.32322,-0.52674 0.7565,0.19044 1.34258,0.83778 2.09235,1.05349 0.50296,0.14471 1.1014,-0.23556 1.56926,0 0.63961,0.32205 1.31685,2.73683 1.56926,3.16048 0.25374,0.42585 0.87301,0.58849 1.04618,1.0535 0.24042,0.6456 0.7426,4.96176 1.56926,5.79421 0.97048,0.97726 3.28928,-3.2373 3.66161,-3.68723 2.54235,-3.07216 1.07701,-0.0466 4.18469,-4.74072 0.30586,-0.46199 0.17865,-1.14666 0.5231,-1.58024 0.39272,-0.49434 1.12472,-0.60584 1.56926,-1.05349 1.71285,-1.72483 1.05211,-2.63493 3.6616,-3.16048 0.7964,-0.16039 1.71592,-0.82868 2.61544,-0.52674 1.33545,0.44826 8.63869,3.80195 9.41557,4.74071 3.21052,3.87958 3.39074,10.63376 4.70778,15.27565 0.57385,2.02254 1.68352,4.26252 2.09235,6.32096 0.10259,0.51651 -0.10259,1.06372 0,1.58024 0.26482,1.33334 1.1016,3.48488 1.56926,4.74071 0.58495,1.5708 1.93431,3.70131 3.13853,4.74072 0.41864,0.36135 1.07608,0.27844 1.56926,0.52675 1.14578,0.5769 2.33696,1.90177 3.6616,2.10698 2.75736,0.42718 5.5796,0 8.3694,0 1.12386,0 7.09321,0.17934 7.32321,0.52676 2.19681,3.31825 1.56926,8.91679 1.56926,12.6419 0,6.60972 -0.57171,13.2862 -3.13852,19.48963 -0.44986,1.08724 -1.14937,2.06114 -1.56926,3.16047 -0.45568,1.19306 -0.47849,2.54392 -1.04617,3.68723 -0.76274,1.53617 -4.66231,6.55763 -5.75396,7.9012 -0.78073,0.9609 -1.9084,1.61661 -2.61543,2.63373 -0.53847,0.77461 -0.59017,1.80718 -1.04618,2.63373 -1.07075,1.94084 -3.20425,4.01816 -3.66161,6.32096 -0.9426,4.74594 -0.52308,9.88944 -0.52308,14.7489 0,2.39758 -0.26307,4.99034 0,7.37445 1.06356,9.639 3.22893,13.27011 -3.66162,21.59661 -0.52134,0.62999 -2.7796,2.80521 -3.6616,3.16048 -2.752,1.1085 -8.65661,-1.34272 -10.46174,-3.16048 -1.94465,-1.95826 -1.6898,-3.94831 -5.23088,-4.74073 -3.41807,-0.76488 -9.99479,0.4192 -12.55409,-1.05348 -1.24463,-0.71621 -4.90371,-4.68824 -6.80013,-3.16049 -0.56138,0.45225 -0.3165,1.41358 -0.52309,2.10699 -0.31687,1.06364 -0.69744,2.10698 -1.04617,3.16048 -2.17485,6.57018 -2.22375,12.17981 1.04617,18.43613 0.41061,0.78561 5.87785,9.10717 5.23088,11.06167 -0.68016,2.05474 -0.79413,0.53312 -3.13853,2.10699 -3.65263,0.66824 -4.68932,4.46432 -7.32322,6.32095 -0.95821,0.67546 -2.13554,0.97425 -3.13852,1.58024 -0.74757,0.45169 -1.28289,1.2542 -2.09234,1.58024 -1.37275,0.55294 -7.72515,1.0131 -9.41558,0.52675 -1.99344,-0.57354 -3.79393,-3.4746 -5.23087,-4.74071 -1.80607,-1.59138 -2.6925,-1.62112 -4.18469,-3.68723 -1.97862,-2.73962 -3.96996,-6.66473 -4.70779,-10.00819 -1.20788,-5.47352 0.38883,-11.34616 -0.52308,-16.85589 -0.80237,-4.84788 -8.9763,-5.1884 -12.55409,-3.68722 -3.89919,1.63603 -7.27372,4.09599 -10.46174,6.84771 -0.46945,0.40519 -2.34719,2.4649 -2.61544,2.63373 -1.84676,1.1623 -4.66479,2.15589 -6.80013,2.63373 -5.2354,1.17156 -10.8454,1.58024 -16.2157,1.58024 -1.70421,0 -7.82824,-0.53584 -8.89248,0 -1.41054,0.7102 -1.37117,5.52302 -1.56926,6.32096 -0.22774,0.9173 -0.6763,1.76464 -1.04618,2.63373 -0.67647,1.58946 -0.98309,3.42061 -2.09235,4.74072 -3.27303,3.8952 -14.70488,5.23067 -18.83113,2.63373 -1.15482,-0.72681 -1.58147,-2.26802 -2.61544,-3.16048 -1.91162,-1.65 -4.21352,-3.19918 -5.75396,-5.26746 -0.568,-0.76263 -2.05625,-3.31183 -2.61543,-3.68723 -0.29016,-0.19479 -0.70219,0.0577 -1.04617,0 -0.70914,-0.11901 -1.41922,-0.27255 -2.09236,-0.52674 -2.90122,-1.09557 -4.5648,-3.2416 -6.80012,-5.26747 -0.82986,-0.7521 -1.85817,-1.28086 -2.61544,-2.10698 -5.77421,-6.29916 -7.37434,-14.45582 -14.12335,-20.01637 -3.35794,-2.76662 -6.42415,-2.9346 -10.46174,-3.16048 -1.92293,-0.10758 -3.82949,-0.45221 -5.75396,-0.52675 -4.85875,-0.18818 -10.27407,0.49298 -15.16953,0 -2.74159,-0.27607 -6.23736,-11.83653 -7.32322,-13.6954 -1.07912,-1.84734 -2.50167,-3.47047 -3.66161,-5.26747 -1.10818,-1.71681 -1.97244,-3.58998 -3.13852,-5.26746 -1.02373,-1.4727 -7.00758,-7.16855 -5.75396,-10.53493 0.4107,-1.10285 0.86747,-2.21821 1.56926,-3.16048 0.37721,-0.50645 1.06633,-0.67365 1.56926,-1.0535 5.82482,-4.39917 15.69678,-8.3405 23.01583,-8.95468 1.48705,-0.12479 10.45091,0.75717 10.98484,0.52674 3.50176,-1.51125 2.37091,-2.52774 4.18469,-5.26746 0.27357,-0.41322 0.86301,-0.59239 1.04618,-1.05349 0.19426,-0.48908 -0.16541,-1.08053 0,-1.58024 1.24042,-3.74731 0.66385,0.24325 2.09234,-2.63374 0.15596,-0.31408 -0.15595,-0.7394 0,-1.05349 0.62449,-1.25769 2.42892,-1.68096 3.13852,-2.63373 0.33084,-0.44419 0.17865,-1.14667 0.5231,-1.58024 4.32758,-5.44731 0.12329,1.06353 2.09234,-1.58024 0.8488,-1.13964 2.05055,-2.54954 2.61544,-3.68722 0.51818,-1.04362 1.96968,-1.65833 2.61544,-2.63374 1.04168,-1.57347 1.43295,-3.49679 2.09234,-5.26747 z"
       id="path2" />
    <path
       style="fill:#ffffff;stroke:none;stroke-width:24"
       d="m 215.83713,111.59761 c -6.92732,-0.32375 -13.62921,1.87754 -20.23473,3.67904 -4.92973,1.34447 -9.82189,2.82393 -14.71617,4.29222 -8.53281,2.55984 -11.42924,7.941 -5.51856,15.32934 1.44456,1.8057 3.40048,3.14967 4.90539,4.90539 3.49153,4.07345 -1.84244,-0.67712 3.67904,4.29221 1.18656,1.0679 2.64015,1.85383 3.67904,3.06587 1.43879,1.67859 2.52035,3.63569 3.67904,5.51856 0.48859,0.79395 1.63805,2.44396 1.22635,3.67905 -0.49224,1.47671 -0.94687,3.017 -1.83952,4.29221 -0.77597,1.10853 -6.3947,4.10544 -6.74491,4.29222 -8.34675,4.4516 -17.78667,5.99753 -26.36647,9.81078 -5.54821,2.46587 -7.78287,7.19661 -12.26347,11.03712 -2.75061,2.35767 -7.30838,4.07666 -6.74491,8.58443 0.70954,5.67629 25.17578,10.45961 30.04551,15.32934 1.16137,1.16138 0.75916,5.53026 0,6.74491 -1.22558,1.96093 -3.38265,3.16512 -4.90539,4.90539 -1.90887,1.05662 -1.811,3.44138 -3.06587,4.90539 -0.66508,0.77593 -1.79845,1.05443 -2.45269,1.83952 -0.41378,0.49654 -0.25465,1.30174 -0.61318,1.83952 -0.11337,0.17007 -0.49979,-0.17006 -0.61317,0 -0.47892,0.71838 -0.52125,2.36077 -1.22635,3.06587 -0.14452,0.14453 -0.54854,-0.1939 -0.61317,0 -0.1939,0.58171 0.0677,1.2301 0,1.83952 -0.1373,1.23566 -0.48947,2.44195 -0.61318,3.67905 -0.16478,1.64788 -0.36535,5.27712 0.61318,6.74491 1.90453,2.8568 6.44995,5.9047 9.81078,6.74491 1.40211,0.35052 2.92111,0.15614 4.29221,0.61317 0.54844,0.18281 0.76387,0.87948 1.22635,1.22635 0.36563,0.27422 0.90318,0.29 1.22635,0.61317 0.14452,0.14453 -0.14453,0.46865 0,0.61317 0.28905,0.28906 0.88622,-0.22675 1.22634,0 0.48102,0.32068 0.68959,1.01165 1.22635,1.22635 2.43814,0.97526 8.12647,-0.36383 11.03713,0 0.83622,0.10453 1.62143,0.47463 2.45269,0.61318 0.53391,0.089 2.5617,-0.33612 3.06587,0 1.7965,1.19766 0.91706,1.22095 1.83952,3.06586 0.82564,1.65127 2.0227,2.35723 2.4527,4.29222 0.22169,0.99762 -0.14453,2.05418 0,3.06587 0.19833,1.38837 3.02186,7.92725 3.67904,8.58443 0.45703,0.45703 1.30173,0.25465 1.83952,0.61317 0.17006,0.11338 -0.14453,0.46865 0,0.61318 0.32317,0.32317 0.97283,0.2329 1.22635,0.61317 0.22675,0.34013 -0.28906,0.93729 0,1.22635 0.28905,0.28905 0.91231,-0.2617 1.22634,0 1.00541,0.83783 1.52728,2.14044 2.4527,3.06586 1.62044,1.62044 9.18227,5.63814 11.6503,6.13174 5.15595,1.03119 10.68262,0.61318 15.94251,0.61318 4.82309,0 8.97202,0.0967 13.48982,-1.83953 1.97526,-0.84654 9.36311,-4.69686 11.03713,-6.13173 2.21738,-1.90061 3.73898,-5.13361 5.51856,-7.35809 0.54171,-0.67713 1.48734,-1.0471 1.83952,-1.83952 1.23749,-2.78435 0.29101,-3.55443 0.61318,-6.13173 0.20905,-1.67244 1.01729,-3.23296 1.22634,-4.90539 1.39051,-11.12407 -3.76806,-16.50228 8.58443,-23.91378 1.95952,-1.1757 4.18185,-1.87427 6.13174,-3.06586 1.74403,-1.0658 3.09901,-2.72272 4.90539,-3.67905 5.04587,-2.67134 14.55813,-4.43233 20.23473,-4.90538 6.22643,-0.51887 12.74842,0 19.00838,0 1.83952,0 3.70872,0.32906 5.51857,0 2.64007,-0.48002 6.84797,-2.3737 9.1976,-3.67905 0.89335,-0.4963 1.53863,-1.38249 2.4527,-1.83952 0.75375,-0.37688 1.69893,-0.23629 2.45269,-0.61317 3.73425,-1.86713 8.75517,-11.96061 9.19761,-15.94252 0.27744,-2.497 0,-5.42889 0,-7.97125 0,-5.6427 0.7608,-14.29595 0,-19.62156 -0.46493,-3.25446 -1.54281,-9.00976 -0.61318,-12.26347 0.25112,-0.8789 0.96369,-1.57718 1.22635,-2.4527 0.35725,-1.19083 0.0987,-2.54722 0.61317,-3.67904 0.54156,-1.19144 1.75007,-1.96173 2.4527,-3.06587 1.80224,-2.83209 7.09296,-13.08805 7.97126,-15.94251 0.24043,-0.78141 -0.10141,-1.64145 0,-2.4527 2.11239,-16.89917 1.83952,-6.8765 1.83952,-17.78203 0,-2.24831 0.36961,-4.5272 0,-6.74491 -0.38601,-2.31604 -3.5851,-18.698268 -8.58444,-16.555698 -4.62709,1.983042 -7.86025,7.406418 -11.03712,11.037128 -1.14206,1.30521 -2.71702,2.23601 -3.67904,3.67904 -0.35853,0.53779 -0.28064,1.28529 -0.61318,1.83953 -0.4865,0.81084 -4.04875,5.14885 -4.29221,4.90538 -5.48806,-5.48805 -7.97065,-14.71371 -9.81078,-22.074252 -0.59764,-2.390567 -1.12218,-5.362304 -2.4527,-7.358083 -0.64539,-0.968095 -1.82085,-1.724352 -3.06586,-1.226348 -2.73401,1.093603 -3.77367,4.037864 -5.51857,6.131737 -1.96698,2.360382 -3.01668,2.403508 -5.51856,4.905389 -1.40346,1.403462 -2.0975,3.130362 -4.29221,3.679042 -1.5385,0.384625 -6.73643,0.529215 -7.97126,0 -2.19087,-0.93894 -3.99979,-2.613068 -6.13174,-3.679042 -3.69479,-1.847394 -9.98677,-2.525558 -14.10299,-1.839521 -1.90751,0.317918 -0.93733,1.240403 -2.4527,2.452695 -0.50471,0.403766 -1.26141,0.324121 -1.83952,0.613173 -0.91406,0.457035 -1.11689,1.730065 -1.83952,2.452695 -0.64634,0.646345 -1.90425,0.495105 -2.45269,1.226355 -0.66041,0.88054 -0.6158,2.15004 -1.22635,3.06587 -1.60602,2.40902 -3.85431,5.53614 -6.13174,7.35808 -0.84007,0.67206 -5.48708,0 -6.74491,0 -2.78177,0 -5.83118,0.34416 -8.58443,0 -1.2827,-0.16034 -2.40395,-1.01383 -3.67904,-1.22635 -1.62543,-0.2709 -3.26761,-0.4312 -4.90539,-0.61317 -1.99905,-0.22212 -2.5467,0.43413 -4.29222,-0.61318 -0.49572,-0.29743 -0.70927,-0.96781 -1.22634,-1.22634 -0.60649,-0.30324 -8.73815,-0.1913 -9.81078,0.61317 -0.962,0.7215 -1.26696,2.27538 -2.4527,3.06587 -0.48249,0.32166 -1.83617,0 -2.45269,0 -1.63513,0 -3.27026,0 -4.90539,0 z"
       id="path3" />
    <path
       style="fill:#ffffff;stroke:none;stroke-width:24"
       d="m 179.65988,191.92335 c -4.12353,2.11675 -7.40048,1.83952 -11.6503,1.83952 -5.4438,0 -14.06831,-1.24368 -19.00838,1.22635 -1.10432,0.55216 -3.35656,2.13021 -4.29222,3.06587 -0.32317,0.32317 -0.29,0.90318 -0.61317,1.22635 -0.32317,0.32317 -0.86072,0.33895 -1.22635,0.61317 -1.5817,1.18628 -2.64732,3.19562 -4.29221,4.29222 -0.17007,0.11337 -0.46865,-0.14453 -0.61318,0 -0.55586,0.55586 -1.96543,2.70042 -2.45269,3.06586 -0.51707,0.38781 -1.32245,0.22537 -1.83952,0.61318 -0.10856,0.0814 -1.73097,2.37128 -1.83952,2.45269 -2.67594,2.00696 -5.09544,5.01942 -7.97126,6.74491 -0.55424,0.33254 -1.28529,0.28064 -1.83952,0.61318 -0.49572,0.29743 -0.68959,1.01164 -1.22635,1.22634 -1.32841,0.53137 -2.88094,-0.23521 -4.29222,0 -4.80281,0.80047 -7.39975,5.37314 -11.03712,7.97126 -0.74381,0.53129 -1.75049,0.64118 -2.4527,1.22635 -0.337,0.28084 -4.092511,5.01931 -4.292212,5.51856 -0.227727,0.56932 0.193903,1.25782 0,1.83952 -0.233042,0.69913 -0.927046,1.1661 -1.226347,1.83952 -1.812088,4.0772 -3.557726,9.08288 -4.292216,13.48982 -0.712292,4.27376 0.669458,8.60121 -0.613173,12.87665 -1.40537,4.68457 -4.641444,6.48097 -7.971258,9.81078 -0.817565,0.81756 -1.700242,1.57483 -2.452695,2.45269 -0.479596,0.55953 -0.650891,1.37916 -1.226347,1.83952 -5.560993,4.4488 0.268875,-2.37727 -1.839521,1.83953 -0.09141,0.18281 -0.521767,-0.18282 -0.613173,0 -0.987778,1.97555 0.705546,6.84842 1.226347,8.58443 1.429085,4.76362 0.919793,1.4819 3.065868,6.13173 6.155396,13.33669 5.725571,15.94409 19.008387,23.91378 4.70506,2.82303 21.31374,6.30289 22.68742,10.42395 0.41623,1.24868 1.43011,2.34846 1.83952,3.67904 1.4469,4.70243 2.26618,9.26708 4.90539,13.48982 0.3064,0.49023 0.92892,0.73063 1.22635,1.22635 1.63326,2.72209 1.79382,9.76507 3.67904,11.6503 1.88662,1.88662 15.05313,9.79418 15.32934,11.03712 0.49222,2.21498 1.12153,6.65583 0.61318,9.19761 -0.62222,3.1111 -3.94551,5.67903 -3.06587,9.1976 0.87804,3.51218 8.69274,8.45225 11.6503,10.42395 3.50361,2.33574 8.74448,0.90849 12.87665,1.22635 8.59521,0.66117 17.11826,0.61318 25.75329,0.61318 6.79081,0 14.02729,0.4547 20.8479,0 3.84161,-0.25611 7.24575,-1.83953 11.03713,-1.83953 6.51781,0 11.71167,5.85584 17.16886,8.58444 0.93217,0.46608 2.1337,0.14709 3.06587,0.61317 0.77561,0.3878 1.14579,1.31922 1.83952,1.83952 0.49054,0.3679 1.22635,0 1.83952,0 5.99832,0 11.93851,-0.19214 17.16886,-3.67904 5.47247,-3.64831 9.83305,-11.28211 10.42396,-17.78204 0.48541,-5.33958 -1.31119,-10.60327 1.83952,-15.32934 0.029,-0.0436 4.70081,-1.37223 5.51856,-1.83952 2.88756,-1.65004 5.20239,-4.28582 7.97126,-6.13174 0.99163,-0.66109 2.16895,-1.05471 3.06587,-1.83952 0.7691,-0.67296 1.38248,-1.53863 1.83952,-2.45269 0.37688,-0.75376 0.31727,-1.66363 0.61317,-2.4527 0.6419,-1.71173 1.77374,-3.20801 2.45269,-4.90539 1.30166,-3.25412 1.46293,-6.51153 2.4527,-9.81077 0.31628,-1.05427 1.07069,-1.97625 1.22635,-3.06587 0.70807,-4.95652 0,-11.63904 0,-16.55569 0,-2.47143 0.50112,-6.07882 0,-8.58443 -1.10924,-5.54617 -2.45431,-11.04437 -3.67905,-16.55569 -0.53881,-2.42465 -1.51147,-4.89774 -1.83952,-7.35808 -0.55795,-4.18463 -0.23948,-6.19227 -1.22634,-9.81078 -1.6696,-6.12185 -4.6687,-12.68027 -7.35809,-18.39521 -1.07493,-2.28423 -5.30838,-8.77725 -6.13173,-10.42396 -5.11261,-10.2252 -4.7754,-33.87294 -1.83952,-44.1485 0.48016,-1.68057 2.66559,-6.05719 3.06586,-7.35808 0.36563,-1.18829 0.28605,-2.47959 0.61318,-3.67904 0.89492,-3.28139 2.57585,-6.38067 3.06587,-9.81078 0.37349,-2.61448 0.33025,-13.44248 -0.61318,-15.32934 -0.68007,-1.36015 -3.65327,-3.1782 -4.90539,-3.67905 -2.48214,-0.99285 -7.14695,-0.61317 -9.81078,-0.61317 -4.68712,0 -10.15353,-0.75562 -14.71616,0.61317 -7.38633,2.2159 -14.13721,6.33094 -21.46108,8.58444 -1.18829,0.36562 -2.4729,0.31163 -3.67904,0.61317 -7.63465,1.90866 -12.4805,5.20202 -20.84791,6.13174 -5.16459,0.57384 -10.73228,0 -15.94251,0 -1.18042,0 -3.63503,-0.31759 -4.90539,0 -0.44339,0.11084 -0.78296,0.50232 -1.22635,0.61317 -0.39658,0.0991 -0.86072,-0.18281 -1.22635,0 -0.51707,0.25854 -0.70927,0.96781 -1.22634,1.22635 -1.94286,0.97142 -0.57062,-1.26891 -2.4527,0.61317 -0.14452,0.14453 0,0.40878 0,0.61317 -0.40878,0.40879 -0.77492,0.86521 -1.22635,1.22635 -0.57545,0.46037 -1.18037,0.89678 -1.83952,1.22635 -0.18281,0.0914 -0.52176,-0.18281 -0.61317,0 -0.18281,0.36562 0.18281,0.86072 0,1.22635 -0.32747,0.65493 -6.57821,1.05221 -7.97126,1.22634 z"
       id="path4" />
    <path
       style="fill:#f5f5f5;stroke:none;stroke-width:24"
       d="m 241.59042,158.81198 c -0.81757,0.81756 -3.27026,1.63513 -2.4527,2.45269 0.81757,0.81757 3.04756,-3.44414 2.4527,-2.45269 -3.97038,6.6173 -4.22752,3.46338 -6.13174,9.81077 -0.17619,0.58732 0.0867,1.23251 0,1.83953 -0.28244,1.97709 -1.03006,3.28647 -1.83952,4.90538 -0.0914,0.18282 0,0.40879 0,0.61318 0,0.40878 0.18281,0.86072 0,1.22635 -0.0914,0.18281 -0.46865,-0.14453 -0.61317,0 -0.98219,0.98218 -1.00072,2.33987 -2.4527,3.06586 -0.36562,0.18282 -0.83854,-0.12926 -1.22634,0 -4.36907,1.45636 -8.80132,3.4809 -12.87665,5.51857 -6.20974,3.10487 -13.55472,5.96186 -19.00838,10.42395 -2.56144,2.09572 -5.7568,6.08617 -8.58443,7.97126 -0.53779,0.35852 -1.33482,0.2094 -1.83953,0.61317 -0.57545,0.46036 -0.65089,1.37916 -1.22634,1.83952 -0.50471,0.40377 -1.28529,0.28063 -1.83952,0.61317 -1.29887,0.77932 -2.06358,2.04883 -3.67905,2.4527 -0.39657,0.0991 -0.88622,-0.22675 -1.22634,0 -0.61318,0.40878 -0.65089,1.37916 -1.22635,1.83952 -0.79801,0.63841 -1.73006,1.11689 -2.4527,1.83952 -1.15801,1.15802 -0.28936,1.15746 -0.61317,2.4527 -0.22169,0.88677 -1.00465,1.56592 -1.22635,2.45269 -1.33033,5.32134 2.03611,6.54832 -3.06586,11.6503 -0.90204,0.90203 -5.99164,4.6076 -7.35809,5.51856 -0.17006,0.11338 -0.46865,-0.14452 -0.61317,0 -3.29233,3.29233 -6.07814,15.70456 -5.51856,19.62156 0.6353,4.44715 3.35708,6.81125 4.90538,10.42395 0.33197,0.77459 0.28121,1.67811 0.61318,2.4527 0.58059,1.35471 1.8721,2.32432 2.45269,3.67904 0.33197,0.77459 0.28121,1.6781 0.61318,2.45269 0.87624,2.04456 2.06734,3.81963 2.45269,6.13174 0.3859,2.31542 0.48286,5.96465 -1.83952,7.35808 -1.09754,0.65853 -2.71102,0.8715 -3.67904,1.83952 -0.92557,0.92557 -1.16134,18.04206 -0.61318,20.23473 0.28125,1.12497 4.25658,11.50653 4.90539,12.26348 0.66508,0.77592 1.73007,1.11689 2.4527,1.83952 0.32317,0.32317 0.24755,0.95213 0.61317,1.22635 0.4737,0.35527 5.21308,2.60654 6.13174,3.06586 0.18281,0.0914 0.46865,-0.14452 0.61317,0 1.05461,1.05461 2.67865,5.43475 3.06587,6.13174 1.8728,3.37104 2.60585,5.51802 3.67904,9.81078 0.47262,1.89046 -0.32748,2.73838 1.22635,4.29221 2.78965,2.78966 8.66589,0.0407 11.03713,1.22635 3.04646,1.52323 7.41478,8.24181 9.81077,11.03713 2.17338,2.5356 5.98529,4.10231 9.19761,4.90539 1.59865,0.39966 3.3156,0.17959 4.90539,0.61317 0.71097,0.1939 1.12458,1.04761 1.83952,1.22635 0.99144,0.24786 2.04391,0 3.06587,0 0.40878,0 0.90714,0.25536 1.22634,0 3.09175,-2.4734 2.35849,-11.56656 7.97126,-16.55569 0.68318,-0.60727 1.69215,-0.71932 2.4527,-1.22635 3.37332,-2.24888 -1.75405,-0.34932 3.67904,-3.06587 0.75376,-0.37688 1.6826,-0.27091 2.45269,-0.61317 2.19534,-0.97571 3.90623,-2.78884 6.13174,-3.67904 0.9245,-0.3698 4.341,-1.27514 4.90539,-1.83952 0.5211,-0.5211 0.70525,-1.31843 1.22635,-1.83952 2.68927,-2.68927 6.7847,-3.97026 9.81077,-6.13174 1.79713,-1.28366 9.39784,-8.3279 10.42396,-8.58443 4.01496,-1.00374 8.23659,1.41855 12.26347,0.61317 2.83607,-0.56721 4.63348,-3.87634 6.74491,-5.51856 1.8126,-1.4098 6.26179,-4.74435 8.58443,-5.51856 2.76349,-0.92117 6.09333,-0.59397 8.58443,-1.83952 2.12567,-1.06284 5.84559,1.06283 7.97126,0 3.26034,-1.63018 6.22003,-3.24246 7.97126,-6.74491 0.28905,-0.57811 0.28063,-1.28529 0.61317,-1.83953 0.44615,-0.74358 1.45172,-1.06391 1.83952,-1.83952 0.69613,-1.39226 1.39224,-2.80126 1.83952,-4.29221 0.35725,-1.19083 0.1883,-2.51063 0.61318,-3.67904 1.72814,-2.88024 2.02276,-3.00242 3.06586,-6.13174 0.41639,-1.24916 -0.21689,-2.99083 0,-4.29222 0.61183,-3.67097 1.60897,-7.21097 1.22635,-11.03712 -0.33478,-3.34778 -1.42768,-6.51608 -1.83952,-9.81078 -0.10141,-0.81125 0.13441,-1.64625 0,-2.45269 -0.0751,-0.45082 -0.52354,-0.77819 -0.61317,-1.22635 -0.4534,-2.26698 0,-5.02833 0,-7.35809 0,-0.53179 -0.19638,-2.57492 0,-3.06586 1.76448,-4.41122 4.76727,-6.19246 6.13173,-11.6503 1.41355,-5.65418 -2.18058,-11.24396 -3.06586,-16.55569 -0.54651,-3.27906 -1.29621,-6.55086 -1.83953,-9.81078 -0.20161,-1.20966 0.33691,-2.49988 0,-3.67904 -0.65417,-2.2896 -2.31205,-4.48346 -3.06586,-6.74491 -1.49868,-4.49603 0.47232,-1.66549 -1.83952,-5.51857 -0.81757,-1.22634 -1.63513,-2.45269 -2.4527,-3.67904 -0.61317,-0.61317 -1.35851,-1.118 -1.83952,-1.83952 -1.11662,-1.67493 -1.19517,-3.94666 -2.4527,-5.51856 -0.46036,-0.57546 -1.31842,-0.70525 -1.83952,-1.22635 -0.52109,-0.5211 -0.70525,-1.31842 -1.22634,-1.83952 -1.53634,-1.53634 -3.20879,-2.93494 -4.90539,-4.29222 -1.14321,-0.91456 -2.51104,-1.06084 -3.67904,-1.83952 -0.72152,-0.48101 -1.08662,-1.40929 -1.83953,-1.83952 -2.38194,-1.36111 -4.33654,-0.74467 -6.74491,-1.22634 -3.5531,-0.71063 -3.40565,-1.02131 -6.13173,-3.06587 -0.95344,-0.71508 -2.16895,-1.05472 -3.06587,-1.83952 -2.09306,-1.83143 -5.93487,-7.06278 -7.35808,-9.19761 -2.19778,-3.29666 -3.6316,-8.29453 -7.35809,-10.42395 -4.54419,-2.59668 -10.57918,-4.13854 -15.94251,-3.06587 -1.78002,0.356 -3.71862,1.32525 -5.51857,1.83952 -0.8103,0.23152 -1.69893,0.2363 -2.45269,0.61318 -0.51707,0.25853 -0.76386,0.87948 -1.22635,1.22634 -1.06206,0.79655 -2.63167,1.31584 -3.67904,1.83952 -2.14835,1.07418 -2.17796,4.35592 -3.06587,6.13174 -1.04219,2.08439 -3.65423,2.89396 -5.51856,4.29222 z"
       id="path5" />
    <path
       style="fill:#dcdcdc;stroke:none;stroke-width:24"
       d="m 245.26946,196.21557 c -0.20439,0.81756 -1.43074,2.2483 -0.61317,2.45269 0.81756,0.20439 1.04675,-3.17532 0.61317,-2.45269 -2.22304,3.70507 -2.90094,7.15193 -5.51856,10.42395 -0.46037,0.57546 -0.89678,1.18038 -1.22635,1.83952 -0.0914,0.18281 0.14453,0.46865 0,0.61318 -2.26911,2.26911 -2.17645,1.04611 -4.29221,1.83952 -1.04532,0.39199 -9.90794,5.28484 -11.03713,6.13173 -1.95275,1.46456 -3.42384,3.64856 -5.51856,4.90539 -0.55424,0.33254 -1.28529,0.28064 -1.83952,0.61318 -1.44284,0.8657 -2.5851,2.49682 -4.29222,3.06586 -0.58171,0.19391 -1.25781,-0.1939 -1.83952,0 -1.78919,0.5964 -3.29088,2.71034 -4.90539,3.67905 -4.08782,2.45269 1.43074,-1.43074 -1.83952,1.83952 -3.83656,3.83656 3.18166,-7.29808 -3.67904,3.67904 -4.94457,7.91131 -1.01534,18.35551 -2.4527,26.97964 -0.43944,2.63665 -0.88829,5.26682 -1.22634,7.97126 -0.60375,4.82992 0.60374,9.88624 0,14.71616 -0.21914,1.75311 -1.23926,4.2535 -0.61318,6.13174 0.60825,1.82474 1.99858,2.18483 3.06587,3.67904 0.53129,0.74381 0.64118,1.75049 1.22635,2.4527 0.47178,0.56613 1.41118,0.62667 1.83952,1.22635 1.26493,1.7709 1.95067,4.27308 3.06587,6.13173 0.90357,1.50595 2.68621,2.80298 3.67904,4.29222 1.83216,2.74824 2.17416,8.13858 5.51856,9.81078 1.68545,0.84272 3.70667,-0.70867 5.51856,-1.22635 1.73975,-0.49707 12.07318,-4.19119 12.87665,-4.90539 1.19312,-1.06056 1.93708,-2.55026 3.06587,-3.67904 1.44526,-1.44527 3.46012,-2.23378 4.90539,-3.67904 0.91831,-0.91832 1.6967,-3.13138 3.06587,-3.67905 4.65864,-1.86345 13.91465,-1.83952 19.00838,-1.83952 1.40791,0 5.47207,0.56571 6.74491,0 1.19594,-0.53153 2.01887,-1.66745 3.06587,-2.45269 5.44451,-4.08339 2.85284,-5.36791 5.51856,-9.81078 1.65396,-2.75659 0.62671,-0.0135 2.4527,-1.83952 1.4601,-1.46011 1.93049,-4.42868 3.06586,-6.13174 3.12718,-4.69077 -1.16159,1.08325 3.67905,-3.06587 1.98734,-1.70343 3.14467,-4.19495 4.90539,-6.13173 0.97218,-1.06941 2.1987,-1.90966 3.06586,-3.06587 0.38781,-0.51707 0.38623,-1.23433 0.61318,-1.83952 1.46216,-3.89911 0.70098,-3.68053 1.22634,-7.35809 0.18282,-1.27969 1.01384,-2.40394 1.22635,-3.67904 0.40405,-2.42429 0.87431,-4.89381 1.22635,-7.35808 0.0867,-0.60701 -0.16845,-1.24994 0,-1.83952 0.58245,-2.03859 2.99777,-6.85851 4.29221,-8.58443 1.1287,-1.50492 2.82885,-2.59183 3.67905,-4.29222 1.73117,-3.46235 1.64943,-10.47608 0.61317,-14.10299 -0.26141,-0.91495 -1.58587,-3.63714 -1.83952,-4.90539 -0.3132,-1.56598 -1.11254,-6.63111 -2.4527,-7.97126 -0.32317,-0.32317 -0.90317,-0.29 -1.22634,-0.61317 -0.5211,-0.5211 -0.70525,-1.31843 -1.22635,-1.83952 -1.3373,-1.3373 -4.58109,-1.39648 -6.13174,-1.83953 -2.49348,-0.71242 -3.18807,-2.18508 -6.13173,-2.45269 -8.67435,-0.78858 -18.2229,0 -26.97964,0 -2.63894,0 -5.97635,0.52162 -8.58444,0 -2.19313,-0.43863 -5.50231,-1.37558 -7.35808,-1.83952 z"
       id="path6" />
    <path
       style="fill:#d3d3d3;stroke:none;stroke-width:24"
       d="m 248.9485,228.1006 c 0,0.81756 -0.81756,2.45269 0,2.45269 0.81757,0 0.68975,-2.89162 0,-2.45269 -25.01951,15.9215 -0.10656,3.96693 -8.58443,7.35808 -1.38366,0.55347 -1.90708,1.68017 -3.06587,2.4527 -0.91582,0.61054 -2.18532,0.56594 -3.06586,1.22634 -0.36563,0.27422 -0.29001,0.90318 -0.61318,1.22635 -0.64634,0.64634 -1.80635,0.58001 -2.45269,1.22635 -0.72264,0.72263 -1.11689,1.73006 -1.83952,2.45269 -2.26184,2.26184 -0.24743,-1.46838 -2.4527,1.83952 -0.66109,0.99164 -1.46264,1.93524 -1.83952,3.06587 -0.1939,0.58171 0.27422,1.29108 0,1.83952 -0.35713,0.71427 -0.86921,1.12526 -1.22635,1.83952 -0.0914,0.18282 0.14453,0.46865 0,0.61318 -0.32317,0.32317 -0.97283,0.2329 -1.22634,0.61317 -0.22676,0.34013 0.24527,0.89932 0,1.22635 -0.44217,0.58955 -1.22635,0.81756 -1.83953,1.22635 -0.40878,0.61317 -0.81756,1.22634 -1.22634,1.83952 -6.63575,9.95361 -0.14593,4.19014 5.51856,14.10299 0.51707,0.90488 0.14709,2.1337 0.61317,3.06587 0.32958,0.65914 0.95266,1.15529 1.22635,1.83952 0.55352,1.3838 -0.98691,5.14483 0,6.13174 0.40755,0.40754 4.4032,0 5.51856,0 5.14768,0 8.02187,-0.83444 12.87665,-2.4527 1.47672,-0.49224 2.76585,-1.53424 4.29222,-1.83952 2.08542,-0.41708 2.54811,-0.3543 4.29221,-1.22635 0.61318,-0.30658 1.22635,0.61318 1.83952,0 2.26,-2.25999 -1.88711,-0.41078 0.61318,-1.83952 6.54891,-3.74223 6.98257,-0.35649 11.6503,-7.35808 1.11139,-1.66709 0.84151,-7.21438 0.61317,-8.58443 -0.18095,-1.08571 -0.98758,-1.9914 -1.22635,-3.06587 -0.69046,-3.1071 0.27727,-6.78763 0.61318,-9.81078 0.15799,-1.42199 -0.39306,-2.91652 0,-4.29221 0.66469,-2.32644 2.74941,-5.92077 4.90539,-7.35809 0.51254,-0.3417 5.47525,-3.00091 5.51856,-3.06587 1.94535,-2.91803 1.86575,-7.1362 -1.22635,-9.1976 -2.79924,-1.86616 -15.11551,-4.02599 -18.39521,-1.83952 -1.15699,0.77133 -2.84361,2.56513 -3.67904,3.67904 -0.54844,0.73125 -0.93729,1.58554 -1.22635,2.4527 -0.0646,0.1939 0.20282,0.58782 0,0.61317 -1.6225,0.20281 -3.27026,0 -4.90539,0 z"
       id="path7" />
    <path
       style="fill:#c0c0c0;stroke:none;stroke-width:24"
       d="m 256,256 c -13.18006,-9.25192 -7.44506,-9.24181 -12.57006,-5.82515 -1.07815,0.71877 -2.77317,1.54683 -3.67904,2.45269 -0.28905,0.28906 0.28905,0.9373 0,1.22635 -0.32317,0.32317 -0.90318,0.29 -1.22635,0.61318 -0.28905,0.28905 0.18281,0.86072 0,1.22634 -0.25854,0.51708 -0.96781,0.70928 -1.22635,1.22635 -0.26481,0.52964 -0.26481,4.98893 0,5.51856 1.27594,2.55189 -0.0423,-0.6555 1.22635,0.61318 0.14453,0.14452 -0.14453,0.46864 0,0.61317 0.38982,0.38982 2.5122,1.7011 3.06587,1.83952 0.85201,0.213 5.29344,0.41915 6.13174,0 0.8334,-0.4167 1.61929,-1.42282 2.45269,-1.83952 1.51022,-0.75511 -0.55353,1.77988 1.83952,-0.61317 0.14453,-0.14453 -0.18281,-0.52177 0,-0.61318 1.16991,-0.58495 1.1816,0.70268 1.83952,-0.61317 C 254.77931,259.97431 255.21211,257.91344 256,256 Z"
       id="path8" />
    <path
       style="fill:#ffffff;stroke:none;stroke-width:24"
       d="m 121.40838,101.78683 c -0.20439,1.02195 -1.63513,2.86147 -0.61317,3.06586 1.02196,0.2044 1.29142,-3.85716 0.61317,-3.06586 -1.84791,2.1559 -2.85253,4.91062 -4.29221,7.35808 -0.97765,1.662 -2.38883,3.09994 -3.06587,4.90539 -1.03949,2.77198 -1.74291,9.05762 1.22635,11.03713 1.32198,0.88131 3.4102,0.0755 4.29221,1.83952 0.73491,1.4698 1.32003,9.38779 0.61318,11.03712 -0.34764,0.81115 -4.64934,5.16145 -3.06587,6.74491 0.14452,0.14453 0.46864,-0.14452 0.61317,0 0.95301,0.95301 -2.3138,0.78383 1.22635,1.22635 3.63321,0.45415 12.49497,0.38168 15.32934,-2.4527 0.38214,-0.38213 0.55415,-1.48866 1.83952,-2.45269 0.36563,-0.27422 0.95213,-0.24755 1.22635,-0.61317 0.3878,-0.51708 0.20941,-1.33482 0.61317,-1.83952 1.11527,-1.3941 2.71809,-1.59234 3.06587,-3.67905 0.5712,-3.42719 0.24431,-6.98683 1.22635,-10.42395 0.88101,-3.08356 2.69485,-12.02132 0,-14.71617 -1.05502,-1.05501 -8.67602,-3.53719 -9.81078,-3.67904 -0.81125,-0.1014 -1.64625,0.13441 -2.4527,0 -3.04455,-0.50742 -5.93429,-2.63588 -8.58443,-4.29221 z"
       id="path9" />
    <path
       style="fill:#ffffff;stroke:none;stroke-width:24"
       d="m 84.617964,361.77246 c -4.563839,0.9575 -4.897058,5.18281 -7.971257,15.94251 -0.677123,2.36993 -1.545664,11.7845 0,14.10299 0.781977,1.17297 2.013751,1.66361 3.065868,2.4527 0.924969,0.69373 1.527725,1.75897 2.452694,2.45269 1.955967,1.46698 9.475791,1.22635 11.6503,1.22635 2.248303,0 4.583112,0.61766 6.744911,0 2.29188,-0.65482 4.20404,-2.27708 6.13174,-3.67904 1.91122,-1.38998 0.36347,-14.26109 0,-17.16886 -0.63693,-5.09537 0,-10.76871 0,-15.94252 0,-0.49519 -0.24207,-2.88031 -0.61318,-3.06587 -0.36562,-0.18281 -0.83854,0.12927 -1.22635,0 -0.69912,-0.23304 -1.15528,-0.95265 -1.83952,-1.22634 -1.79367,-0.71747 -9.80626,-2.14837 -11.650296,-1.22635 -0.517073,0.25854 -0.745334,0.90567 -1.226347,1.22635 -0.170064,0.11337 -0.408782,0 -0.613174,0 -1.635129,1.63513 -3.270259,3.27026 -4.905389,4.90539 z"
       id="path10" />
    <path
       style="fill:#ffffff;stroke:none;stroke-width:24"
       d="m 430.4479,133.05868 c -4.31975,2.14509 -8.43378,0.67099 -12.87664,1.22635 -0.86706,0.10838 -4.21485,2.9885 -4.90539,3.67904 -2.24458,2.24458 -1.59202,4.2885 -3.06587,6.74491 -1.01345,1.68909 -4.44186,4.45647 -3.67904,6.74491 1.29886,3.89657 13.50812,3.17567 14.10299,6.74491 0.60035,3.60207 -0.85284,4.86843 -3.06587,7.35809 -0.86948,0.97816 -1.52727,2.14044 -2.45269,3.06586 -0.95915,0.95915 -3.66639,1.26431 -3.06587,3.06587 1.00827,3.02481 5.01084,4.76251 7.35808,6.13174 6.68292,3.89836 12.99611,7.35808 20.84791,7.35808 0.94128,0 4.1134,0.52799 4.90539,0 0.38027,-0.25351 0.35966,-0.84607 0.61317,-1.22634 3.06183,-4.59274 0.52122,-0.50283 3.67904,-4.29222 2.38558,-2.86269 4.60623,-6.45465 6.13174,-9.81078 2.23956,-4.92703 5.54071,-11.55064 4.29222,-17.16886 -0.60017,-2.70074 -3.01667,-3.39264 -4.29222,-5.51856 -0.47028,-0.78381 -0.65533,-1.73893 -1.22635,-2.4527 -0.74451,-0.93063 -2.22314,-0.99679 -3.06587,-1.83952 -1.14422,-1.14422 -1.17271,-2.59258 -3.06586,-3.06587 -1.92871,-0.48217 -3.52258,0.38482 -5.51857,-0.61317 -0.51707,-0.25854 -0.73062,-0.92892 -1.22634,-1.22635 -0.55424,-0.33254 -1.26142,-0.32412 -1.83952,-0.61317 -0.51708,-0.25854 -0.76387,-0.87949 -1.22635,-1.22635 -2.76231,-2.07173 -2.95743,-1.59898 -7.35809,-3.06587 z"
       id="path11" />
  </g>
</svg>
