<svg xmlns="http://www.w3.org/2000/svg" viewBox="0 0 537 537" width="537" height="537"><defs></defs><g transform="matrix(1,0,0,1,-8.199679199,-6.751546269)">
<g>
	<g>
		<path d="M275,91C376.528399,91 459,173.471601 459,275 C459,376.528399 376.528399,459 275,459 C173.471601,459 91,376.528399 91,275 C91,173.471601 173.471601,91 275,91 Z" transform="matrix(1,0,0,1,0,0)" fill="#ffffff" fill-opacity="0" stroke="#000000" stroke-width="32"/>
		<path d="M279.440099,6.751546C279.440099,6.751546 274.633967,544.330038 274.633967,544.330038 " transform="matrix(1,0,0,1,0,0)" fill="none" stroke="#000000" stroke-width="32"/>
		<path d="M545.799452,276.233588C545.799452,276.233588 8.199679,275.766411 8.199679,275.766411 " transform="matrix(1,0,0,1,0,0)" fill="none" stroke="#000000" stroke-width="32"/>
		<path d="M275,91C376.528399,91 459,173.471601 459,275 C459,376.528399 376.528399,459 275,459 C173.471601,459 91,376.528399 91,275 C91,173.471601 173.471601,91 275,91 Z" transform="matrix(1,0,0,1,0,0)" fill="#ffffff" fill-opacity="0" stroke="#ffffff" stroke-width="16"/>
		<path d="M537.199816,276.226115C537.199816,276.226115 16.400886,275.773538 16.400886,275.773538 " transform="matrix(1,0,0,1,0,0)" fill="none" stroke="#ffffff" stroke-width="16"/>
		<path d="M279.374646,14.072683C279.374646,14.072683 275,536.770499 275,536.770499 " transform="matrix(1,0,0,1,0,0)" fill="none" stroke="#ffffff" stroke-width="16"/>
	</g>
</g></g></svg>