<svg xmlns="http://www.w3.org/2000/svg" viewBox="0 0 394 368" width="394" height="368"><defs></defs><g transform="matrix(1,0,0,1,-79.386941101,-91)">
<g>
	<g>
		<path d="M275,91C376.528399,91 459,173.471601 459,275 C459,376.528399 376.528399,459 275,459 C173.471601,459 91,376.528399 91,275 C91,173.471601 173.471601,91 275,91 Z" transform="matrix(1,0,0,1,0,0)" fill="#ffffff" fill-opacity="0" stroke="#cf0000" stroke-width="32" opacity="0.8"/>
		<path d="M473.933806,458.450156C473.933806,458.450156 79.386941,93.283748 79.386941,93.283748 " transform="matrix(1,0,0,1,0,0)" fill="none" stroke="#cf0000" stroke-width="32" opacity="0.8"/>
		<path d="M474.194277,92.830625C474.194277,92.830625 80.486659,458.901718 80.486659,458.901718 " transform="matrix(1,0,0,1,0,0)" fill="none" stroke="#cf0000" stroke-width="32" opacity="0.8"/>
	</g>
</g></g></svg>