<?xml version="1.0" encoding="UTF-8" standalone="no"?>
<!DOCTYPE svg PUBLIC "-//W3C//DTD SVG 1.1//EN" "http://www.w3.org/Graphics/SVG/1.1/DTD/svg11.dtd">
<svg width="100%" height="100%" viewBox="0 0 512 512" version="1.1" xmlns="http://www.w3.org/2000/svg" xmlns:xlink="http://www.w3.org/1999/xlink" xml:space="preserve" xmlns:serif="http://www.serif.com/" style="fill-rule:evenodd;clip-rule:evenodd;stroke-linejoin:round;stroke-miterlimit:2;">
    <g id="Layer2">
        <g transform="matrix(1.46295,0,0,1.40312,-182.174,-6.92111)">
            <path d="M216.201,134.612C228.938,112.291 246.112,88.319 253.939,77.882C254.138,77.617 254.382,77.408 254.652,77.258C257.307,72.42 260.349,66.987 263.84,60.878C263.97,60.651 264.131,60.455 264.314,60.293C265.887,57.519 267.579,54.896 269.408,52.491C278.886,40.023 288.087,25.279 289.153,22.875C289.672,21.705 291.004,21.194 292.126,21.735C293.248,22.276 293.738,23.665 293.219,24.835C292.839,25.691 291.464,28.071 289.422,31.35C289.691,31.407 289.953,31.517 290.196,31.681C291.194,32.358 291.51,33.73 290.915,34.805C289.837,36.757 288.775,38.539 287.741,40.21C288.702,40.874 289.028,42.2 288.472,43.269C287.045,46.012 285.918,48.148 284.952,49.934C285.036,49.969 285.119,50.01 285.2,50.057C286.221,50.642 286.641,51.946 286.166,53.056C282.008,62.756 278.351,72.433 275.111,81.924C275.308,81.957 275.504,82.017 275.694,82.108C276.815,82.643 277.311,84.022 276.803,85.193C276.8,85.2 276.797,85.207 276.794,85.214C262.389,118.463 263.692,132.407 254.982,171.177C252.986,180.059 251.735,183.592 250.879,186.443C250.83,187.229 250.776,188.011 250.717,188.787C250.799,188.796 250.879,188.807 250.957,188.82C250.959,188.821 250.961,188.821 250.962,188.821C252.181,189.036 253.002,190.24 252.798,191.511C252.644,192.463 251.958,193.183 251.111,193.396L250.164,194.424C249.928,196.339 249.641,198.195 249.292,199.971C252.682,201.227 254.644,202.124 255.466,202.714L256.176,203.351L256.68,204.19L256.858,205.069L256.689,206.082L256.13,206.966L255.316,207.546C254.961,207.716 254.388,207.883 253.6,207.97C252.458,208.096 250.623,208.108 248.285,208.07C243.494,207.991 236.452,207.715 229.013,208.034C227.031,208.767 225.255,209.504 223.504,210.136C218.349,211.996 213.392,213.077 204.734,211.002C194.519,212.389 189.161,212.639 183.949,212.254C182.939,212.179 182.112,211.41 181.913,210.393C181.806,210.411 181.7,210.428 181.595,210.445C181.175,210.764 180.751,211.09 180.322,211.421C179.575,211.999 178.564,212.035 177.781,211.512C177.59,211.385 177.423,211.232 177.282,211.058C172.879,211.583 171.39,211.399 170.183,211.735C169.195,212.009 168.155,211.552 167.654,210.623C167.153,209.694 167.318,208.53 168.056,207.793C170.372,205.476 177.501,193.846 186.304,179.792C195.684,164.818 206.893,147.138 216.201,134.612ZM190.783,203.932L190.808,203.827C190.736,203.876 190.663,203.925 190.591,203.974C190.655,203.96 190.719,203.946 190.783,203.932ZM244.962,182.533C244.953,182.384 244.945,182.236 244.937,182.087C244.933,182.284 244.929,182.479 244.926,182.672C244.938,182.626 244.95,182.579 244.962,182.533ZM226.848,149.147C226.577,149.714 226.307,150.282 226.039,150.851C226.285,150.358 226.522,149.877 226.747,149.409C226.781,149.321 226.815,149.234 226.848,149.147Z" style="fill:rgb(240,195,40);"/>
        </g>
        <g transform="matrix(1.46295,0,0,1.40312,-182.174,-6.92111)">
            <path d="M216.63,334.347L216.212,334.136L215.595,333.518L215.332,333.02L215.188,332.503L215.206,331.497C215.265,331.178 215.467,330.427 215.805,329.314C217.807,322.732 224.877,301.829 231.179,284.312C232.621,276.953 234.149,271.941 235.573,268.45C237.929,244.517 243.622,229.775 248.7,206.967C251.909,192.554 253.259,179.311 255.923,172.95C256.361,171.905 256.846,171.017 257.375,170.285C256.637,169.994 256.069,169.305 255.948,168.434C255.77,167.158 256.62,165.973 257.843,165.788C271.207,163.769 277.587,163.687 282.44,164.337C282.925,164.018 283.427,163.703 283.948,163.395C284.743,162.923 285.733,163.004 286.449,163.597C286.733,163.832 286.951,164.13 287.095,164.46C305.592,159.619 314.317,164.078 334.74,162.921C335.844,162.859 336.827,163.646 337.054,164.775C337.28,165.904 336.683,167.036 335.647,167.44C335.489,167.502 335.332,167.563 335.175,167.624C335.433,168.351 335.337,169.195 334.854,169.854C330.61,175.641 328.58,178.316 325.123,184.653C322.49,189.48 319.481,192.775 317.073,194.941C313.852,200.287 310.729,205.629 305.542,212.896C305.639,212.974 305.731,213.062 305.818,213.158C306.612,214.051 306.616,215.429 305.827,216.327C304.807,217.485 303.721,218.6 302.578,219.685C297.289,226.09 290.025,238.637 279.552,253.099C278.322,254.798 276.892,256.815 275.311,259.066C275.297,259.093 275.282,259.119 275.266,259.145C258.212,287.971 261.653,284.214 241.535,310.253C238.59,314.065 233.098,325.614 228.72,330.584C228.171,331.208 227.361,331.456 226.607,331.29C222.946,340.134 219.312,346.997 215.106,351.879C214.416,352.68 213.291,352.886 212.381,352.377C211.471,351.868 211.013,350.777 211.271,349.735C212.858,343.328 214.713,338.507 216.63,334.347ZM291.918,216.547L291.842,216.41C291.828,216.509 291.814,216.606 291.8,216.704C291.839,216.651 291.878,216.599 291.918,216.547ZM250.632,277.036C250.736,276.904 250.841,276.771 250.945,276.639C250.878,276.692 250.812,276.745 250.746,276.796C250.708,276.876 250.67,276.956 250.632,277.036ZM277.67,177.487C277.5,177.738 277.327,177.996 277.151,178.261C277.19,178.276 277.229,178.292 277.267,178.308C277.403,178.033 277.537,177.759 277.67,177.487ZM279.903,191.66L279.843,191.605C279.803,191.724 279.763,191.842 279.724,191.96C279.784,191.859 279.844,191.759 279.903,191.66Z" style="fill:rgb(240,195,40);"/>
        </g>
    </g>
    <g id="Layer21" serif:id="Layer2" transform="matrix(0.333297,0,0,0.610494,282.961,196.37)">
        <g transform="matrix(1.07652,0,0,0.836048,-123.521,158.119)">
            <path d="M217.739,123.324C226.573,102.796 237.72,89.533 247.624,76.327C247.869,76 248.149,75.695 248.458,75.411C251.032,70.731 253.958,65.51 257.29,59.68C258.359,57.81 260.542,56.484 263.092,55.934C265.33,52.803 268.775,47.94 274.257,40.12C278.56,32.153 281.312,25.945 282.015,24.359C283.515,20.976 288.64,19.086 293.452,20.14C298.264,21.195 300.953,24.797 299.453,28.18C298.898,29.432 297.126,33.426 294.361,38.885C295.708,40.486 296.057,42.482 295.08,44.36C293.042,48.279 291.611,50.968 290.387,53.168C292.175,54.763 292.852,56.921 291.962,58.997C286.693,71.292 282.269,82.62 278.506,93.04C279.801,94.546 280.215,96.418 279.428,98.234C279.422,98.249 279.416,98.264 279.409,98.278C265.096,131.319 269.348,132.465 259.77,170.778C259.619,171.379 259.472,171.959 259.329,172.517C258.875,175.683 258.454,177.132 257.388,180.663C256.624,185.452 255.984,190.282 254.815,196.362C256.921,196.958 258.574,198.069 259.549,199.428C260.047,199.7 260.433,199.939 260.716,200.142L262.332,201.598L263.417,203.384L263.742,205.461L262.984,207.787L261.684,209.32L259.518,210.732L255.972,211.823C254.915,212.006 253.328,212.148 251.288,212.171C247.108,212.217 239.422,211.743 231.106,212.02C229.634,212.594 228.282,213.157 226.941,213.641C220.192,216.076 213.701,217.644 202.142,214.781C196.588,214.916 192.793,214.456 189.378,214.032C186.765,215.251 183.382,215.462 180.448,214.493C180.169,214.401 179.898,214.3 179.638,214.19C176.866,214.585 176.152,214.763 175.079,215.061C171.326,216.103 167.045,215.291 164.548,213.063C162.052,210.835 161.931,207.719 164.251,205.398C169.749,199.901 200.288,143.387 217.739,123.324Z" style="fill:rgb(240,195,40);"/>
        </g>
        <g transform="matrix(1.07652,0,0,0.836048,-123.521,158.119)">
            <path d="M228.765,189.659C226.436,190.186 223.814,190.059 221.512,189.155C217.111,187.428 215.533,183.513 217.991,180.42L219.316,179.1L221.25,177.924L223.613,177.127L226.177,176.788C227.229,176.74 229.887,177.064 238.387,176.639C243.415,176.388 247.787,179.053 248.145,182.587C248.503,186.122 244.711,189.195 239.683,189.447C234.584,189.702 230.804,189.696 228.765,189.659ZM233.674,186.991C233.764,186.892 233.852,186.789 233.938,186.68C233.854,186.786 233.766,186.89 233.674,186.991Z" style="fill:rgb(240,195,40);"/>
        </g>
        <g transform="matrix(1.07652,0,0,0.836048,-123.521,158.119)">
            <path d="M214.461,322.555L214.177,321.891L214.642,318.192C216.66,310.437 225.983,279.688 231.597,264.709C231.952,261.807 232.789,258.256 233.837,254.417C235.738,233.197 236.489,228.392 241.882,206.405C245.472,191.769 244.336,189.005 250.641,173.612C249.149,172.728 248.048,171.502 247.606,170.058C246.547,166.594 249.689,163.177 254.617,162.433C267.027,160.559 274.117,160.109 279.447,160.358C282.188,158.858 285.896,158.587 289.005,159.636C297.3,157.914 303.944,157.846 310.735,158.191C317.463,158.533 324.365,159.407 334.128,158.854C338.413,158.611 342.358,160.502 343.603,163.395C344.722,165.996 343.384,168.774 340.37,170.375C340.71,171.715 340.449,173.141 339.495,174.442C335.405,180.02 335.035,179.689 331.704,185.797C328.996,190.762 325.931,194.242 323.394,196.607C319.122,203.555 315.605,209.956 305.674,222.726C304.875,223.753 304.093,224.759 303.328,225.743C304.925,227.725 304.957,230.234 303.149,232.288C300.968,234.767 298.895,236.933 296.867,238.947C294.905,241.706 292.119,246.021 285.903,254.605C284.544,256.482 283.341,258.052 282.248,259.401C282.073,259.917 281.805,260.425 281.439,260.913C262.357,286.356 262.674,287.667 245.319,311.809C244.191,314.372 242.76,316.24 241.035,318.781C239.573,321.914 238.147,325.396 235.171,328.775C234.51,329.525 233.661,330.148 232.691,330.632C232.399,331.39 232.111,332.131 231.827,332.855C229.215,339.497 226.7,344.86 222.757,349.438C220.428,352.141 215.647,353.251 211.486,352.054C207.325,350.857 205.022,347.71 206.058,344.634C209.871,333.309 212.162,328.059 214.461,322.555Z" style="fill:rgb(240,195,40);"/>
        </g>
    </g>
    <g id="Layer22" serif:id="Layer2" transform="matrix(0.510164,0,0,0.555606,11.3021,287.637)">
        <g transform="matrix(1.14842,0,0,1.10982,481.593,-470.877)">
            <path d="M221.308,123.164C230.13,102.673 241.26,89.422 251.148,76.237C251.39,75.914 251.664,75.625 251.962,75.369C254.549,70.663 257.494,65.409 260.849,59.538C261.893,57.711 263.905,56.694 265.959,56.761C268.163,53.688 271.738,48.652 277.809,39.991C282.119,32.012 284.876,25.794 285.58,24.206C286.778,21.503 290.061,20.234 292.906,21.372C295.75,22.511 297.087,25.63 295.888,28.333C295.34,29.57 293.601,33.49 290.888,38.856C292.19,40.42 292.503,42.613 291.517,44.51C289.528,48.334 288.117,50.986 286.914,53.156C288.662,54.617 289.313,57.012 288.397,59.149C283.162,71.365 278.762,82.626 275.014,92.989C276.278,94.454 276.675,96.514 275.864,98.387C275.857,98.401 275.851,98.416 275.845,98.431C261.54,131.452 265.789,132.604 256.217,170.895C256.068,171.488 255.923,172.06 255.781,172.611C255.326,175.782 254.903,177.239 253.835,180.781C253.056,185.66 252.407,190.581 251.195,196.825C251.64,196.932 252.037,197.023 252.398,197.087C252.403,197.088 252.408,197.089 252.412,197.09C254.06,197.38 255.403,198.329 256.198,199.598C256.805,199.908 257.256,200.174 257.565,200.395L258.845,201.555L259.854,203.235L260.21,204.988L259.868,207.024L258.675,208.899L256.896,210.171C256.073,210.564 254.116,211.033 251.21,211.065C246.792,211.114 238.578,210.626 229.76,210.975C227.971,211.649 226.354,212.321 224.757,212.897C218.845,215.03 213.169,216.302 202.886,213.637C196.039,213.88 191.907,213.184 187.974,212.716C187.935,212.745 187.897,212.775 187.858,212.805C186.036,214.213 183.481,214.389 181.464,213.246C181.26,213.13 181.066,213.004 180.883,212.867C175.504,213.592 174.702,213.799 173.292,214.191C170.865,214.865 168.264,213.908 166.948,211.857C165.631,209.806 165.927,207.171 167.668,205.43C169.93,203.168 176.489,191.834 184.694,178.182C196.4,158.707 211.126,134.717 221.308,123.164Z" style="fill:rgb(240,195,40);"/>
        </g>
        <g transform="matrix(1.14842,0,0,1.10982,481.593,-470.877)">
            <path d="M227.877,188.543C226.156,189.136 224.164,188.916 222.595,187.791C220.131,186.025 219.641,182.689 221.5,180.348L222.563,179.282L223.822,178.509L225.126,178.066L226.501,177.886C227.555,177.838 230.22,178.162 238.742,177.736C241.824,177.582 244.458,179.835 244.621,182.764C244.783,185.693 242.412,188.196 239.329,188.35C233.084,188.662 229.408,188.6 227.877,188.543Z" style="fill:rgb(240,195,40);"/>
        </g>
        <g transform="matrix(1.14842,0,0,1.10982,481.593,-470.877)">
            <path d="M217.948,322.591L217.724,321.98L217.702,320.285C217.748,319.951 217.906,319.189 218.197,318.072C220.21,310.334 229.489,279.722 235.11,264.691C235.451,261.548 236.316,257.676 237.459,253.485C239.305,232.979 240.11,227.998 245.435,206.289C249.024,191.657 247.895,188.882 254.177,173.528C252.549,172.807 251.315,171.355 251.012,169.544C250.527,166.647 252.609,163.922 255.657,163.461C263.407,162.291 268.992,161.705 273.357,161.509C273.607,161.483 273.86,161.472 274.113,161.478C276.793,161.382 279.004,161.438 280.986,161.596C281.347,161.367 281.717,161.14 282.095,160.916C284.005,159.784 286.438,159.852 288.272,161.078C305.623,157.024 314.584,161.078 334.529,159.949C337.258,159.794 339.704,161.537 340.314,164.069C340.923,166.601 339.516,169.181 336.988,170.169C336.929,170.192 336.87,170.215 336.811,170.238C337.179,171.669 336.921,173.237 335.967,174.538C331.857,180.143 331.49,179.807 328.142,185.944C325.465,190.852 322.431,194.28 319.935,196.597C315.639,203.578 312.131,209.982 302.159,222.804C301.381,223.804 300.619,224.783 299.874,225.742C301.394,227.684 301.354,230.409 299.673,232.319C297.516,234.77 295.466,236.916 293.46,238.911C291.462,241.705 288.624,246.071 282.372,254.704C281.002,256.597 279.791,258.176 278.69,259.533C278.518,260.046 278.26,260.543 277.915,261.003C258.875,286.39 259.144,287.755 241.912,311.737C241.153,313.634 240.263,315.159 239.262,316.669C238.74,317.457 238.174,318.237 237.565,319.089C237.416,319.428 237.263,319.77 237.105,320.115C235.809,322.939 234.254,325.901 231.695,328.805C231.032,329.558 230.19,330.096 229.273,330.404C228.93,331.295 228.595,332.161 228.263,333.004C225.667,339.606 223.193,344.928 219.273,349.478C217.572,351.453 214.634,352 212.275,350.782C209.915,349.564 208.8,346.924 209.618,344.493C213.39,333.288 215.673,328.031 217.948,322.591Z" style="fill:rgb(240,195,40);"/>
        </g>
    </g>
    <g id="Layer1">
        <g transform="matrix(1.46295,0,0,1.40312,-182.174,-6.92111)">
            <path d="M168.592,210.016C168.298,210.804 167.446,211.196 166.69,210.89C165.934,210.584 165.559,209.695 165.852,208.907C171.574,193.539 284.36,28.614 290.463,18.442C290.893,17.725 291.801,17.507 292.488,17.955C293.176,18.404 293.385,19.35 292.955,20.067C286.866,30.214 174.3,194.686 168.592,210.016Z" style="fill:rgb(240,195,40);"/>
        </g>
        <g transform="matrix(1.46295,0,0,1.40312,-182.174,-6.92111)">
            <path d="M166.647,212.379C165.843,212.27 165.275,211.501 165.379,210.662C165.484,209.823 166.222,209.231 167.026,209.34C171.815,209.989 208.961,210.83 246.703,206.39C247.509,206.295 248.237,206.901 248.328,207.741C248.419,208.581 247.838,209.341 247.032,209.435C208.955,213.915 171.479,213.033 166.647,212.379Z" style="fill:rgb(240,195,40);"/>
        </g>
        <g transform="matrix(1.46295,0,0,1.40312,-182.174,-6.92111)">
            <path d="M293.916,16.293C294.39,15.607 295.309,15.451 295.967,15.945C296.626,16.439 296.775,17.397 296.301,18.084C295.498,19.247 295.204,20.158 294.705,22.244C293.387,27.751 290.958,40.562 277.857,81.5C263.544,126.23 253.51,194.68 248.256,210.443C247.989,211.242 247.151,211.665 246.385,211.387C245.619,211.11 245.213,210.236 245.479,209.437C250.732,193.679 260.76,125.248 275.069,80.531C288.119,39.749 290.54,26.988 291.853,21.502C292.481,18.878 292.906,17.756 293.916,16.293Z" style="fill:rgb(240,195,40);"/>
        </g>
        <g transform="matrix(-1.46295,0,0,-1.40312,555.903,517.452)">
            <path d="M168.592,210.016C168.298,210.804 167.446,211.196 166.69,210.89C165.934,210.584 165.559,209.695 165.852,208.907C171.574,193.539 284.36,28.614 290.463,18.442C290.893,17.725 291.801,17.507 292.488,17.955C293.176,18.404 293.385,19.35 292.955,20.067C286.866,30.214 174.3,194.686 168.592,210.016Z" style="fill:rgb(240,195,40);"/>
        </g>
        <g transform="matrix(-1.46295,0,0,-1.40312,555.903,517.452)">
            <path d="M166.647,212.379C165.843,212.27 165.275,211.501 165.379,210.662C165.484,209.823 166.222,209.231 167.026,209.34C171.815,209.989 208.961,210.83 246.703,206.39C247.509,206.295 248.237,206.901 248.328,207.741C248.419,208.581 247.838,209.341 247.032,209.435C208.955,213.915 171.479,213.033 166.647,212.379Z" style="fill:rgb(240,195,40);"/>
        </g>
        <g transform="matrix(-1.46295,0,0,-1.40312,555.903,517.452)">
            <path d="M293.916,16.293C294.39,15.607 295.309,15.451 295.967,15.945C296.626,16.439 296.775,17.397 296.301,18.084C295.498,19.247 295.204,20.158 294.705,22.244C293.387,27.751 290.958,40.562 277.857,81.5C263.544,126.23 253.51,194.68 248.256,210.443C247.989,211.242 247.151,211.665 246.385,211.387C245.619,211.11 245.213,210.236 245.479,209.437C250.732,193.679 260.76,125.248 275.069,80.531C288.119,39.749 290.54,26.988 291.853,21.502C292.481,18.878 292.906,17.756 293.916,16.293Z" style="fill:rgb(240,195,40);"/>
        </g>
    </g>
    <g id="Layer11" serif:id="Layer1" transform="matrix(0.333297,0,0,0.610494,282.961,196.37)">
        <g transform="matrix(1.07652,0,0,0.836048,-123.521,158.119)">
            <path d="M173.019,210.528C172.181,212.777 168.904,214.125 165.705,213.536C162.506,212.948 160.588,210.644 161.425,208.395C167.156,193.002 280.075,27.806 286.188,17.617C287.473,15.475 290.99,14.47 294.038,15.373C297.085,16.277 298.515,18.749 297.23,20.891C291.151,31.022 178.717,195.223 173.019,210.528Z" style="fill:rgb(240,195,40);"/>
        </g>
        <g transform="matrix(1.07652,0,0,0.836048,-123.521,158.119)">
            <path d="M165.703,214.996C162.455,214.556 160.327,212.345 160.953,210.062C161.579,207.78 164.723,206.284 167.971,206.723C172.653,207.358 208.971,208.1 245.878,203.758C249.14,203.375 252.231,204.925 252.777,207.218C253.323,209.51 251.118,211.683 247.856,212.067C208.945,216.645 170.64,215.664 165.703,214.996Z" style="fill:rgb(240,195,40);"/>
        </g>
        <g transform="matrix(1.07652,0,0,0.836048,-123.521,158.119)">
            <path d="M289.718,15.349C291.162,13.258 294.75,12.384 297.725,13.399C300.7,14.414 301.943,16.936 300.499,19.028C299.816,20.018 299.612,20.796 299.188,22.572C297.868,28.089 295.434,40.924 282.309,81.94C267.994,126.676 257.956,195.136 252.701,210.901C251.947,213.164 248.72,214.571 245.5,214.041C242.281,213.511 240.279,211.242 241.034,208.979C246.286,193.223 256.31,124.802 270.617,80.091C283.643,39.387 286.06,26.65 287.37,21.175C288.072,18.239 288.588,16.986 289.718,15.349Z" style="fill:rgb(240,195,40);"/>
        </g>
        <g transform="matrix(-1.07652,0,0,-0.836048,419.597,470.566)">
            <path d="M173.019,210.528C172.181,212.777 168.904,214.125 165.705,213.536C162.506,212.948 160.588,210.644 161.425,208.395C167.156,193.002 280.075,27.806 286.188,17.617C287.473,15.475 290.99,14.47 294.038,15.373C297.085,16.277 298.515,18.749 297.23,20.891C291.151,31.022 178.717,195.223 173.019,210.528Z" style="fill:rgb(240,195,40);"/>
        </g>
        <g transform="matrix(-1.07652,0,0,-0.836048,419.597,470.566)">
            <path d="M165.703,214.996C162.455,214.556 160.327,212.345 160.953,210.062C161.579,207.78 164.723,206.284 167.971,206.723C172.653,207.358 208.971,208.1 245.878,203.758C249.14,203.375 252.231,204.925 252.777,207.218C253.323,209.51 251.118,211.683 247.856,212.067C208.945,216.645 170.64,215.664 165.703,214.996Z" style="fill:rgb(240,195,40);"/>
        </g>
        <g transform="matrix(-1.07652,0,0,-0.836048,419.597,470.566)">
            <path d="M289.718,15.349C291.162,13.258 294.75,12.384 297.725,13.399C300.7,14.414 301.943,16.936 300.499,19.028C299.816,20.018 299.612,20.796 299.188,22.572C297.868,28.089 295.434,40.924 282.309,81.94C267.994,126.676 257.956,195.136 252.701,210.901C251.947,213.164 248.72,214.571 245.5,214.041C242.281,213.511 240.279,211.242 241.034,208.979C246.286,193.223 256.31,124.802 270.617,80.091C283.643,39.387 286.06,26.65 287.37,21.175C288.072,18.239 288.588,16.986 289.718,15.349Z" style="fill:rgb(240,195,40);"/>
        </g>
    </g>
    <g id="Layer12" serif:id="Layer1" transform="matrix(0.510164,0,0,0.555606,11.3021,287.637)">
        <g transform="matrix(1.14842,0,0,1.10982,481.593,-470.877)">
            <path d="M170.681,210.624C170.006,212.438 167.908,213.39 165.998,212.748C164.089,212.107 163.087,210.113 163.763,208.299C169.493,192.907 282.408,27.715 288.521,17.527C289.524,15.856 291.767,15.272 293.526,16.225C295.286,17.178 295.9,19.309 294.897,20.981C288.818,31.113 176.381,195.317 170.681,210.624Z" style="fill:rgb(240,195,40);"/>
        </g>
        <g transform="matrix(1.14842,0,0,1.10982,481.593,-470.877)">
            <path d="M166.319,214.311C164.314,214.04 162.918,212.272 163.204,210.367C163.49,208.462 165.35,207.136 167.355,207.408C172.107,208.052 208.965,208.859 246.417,204.453C248.426,204.216 250.26,205.575 250.509,207.484C250.758,209.394 249.328,211.136 247.318,211.373C208.951,215.887 171.187,214.971 166.319,214.311Z" style="fill:rgb(240,195,40);"/>
        </g>
        <g transform="matrix(1.14842,0,0,1.10982,481.593,-470.877)">
            <path d="M292.041,15.276C293.151,13.667 295.428,13.218 297.122,14.273C298.815,15.329 299.288,17.492 298.177,19.101C297.494,20.089 297.281,20.874 296.857,22.646C295.536,28.165 293.103,41.003 279.974,82.03C265.658,126.767 255.621,195.227 250.366,210.993C249.754,212.827 247.69,213.845 245.759,213.264C243.829,212.683 242.758,210.722 243.369,208.887C248.621,193.131 258.645,124.711 272.952,80.001C285.974,39.308 288.391,26.574 289.7,21.1C290.404,18.162 290.909,16.914 292.041,15.276Z" style="fill:rgb(240,195,40);"/>
        </g>
        <g transform="matrix(-1.14842,0,0,-1.10982,1060.99,-56.1175)">
            <path d="M170.681,210.624C170.006,212.438 167.908,213.39 165.998,212.748C164.089,212.107 163.087,210.113 163.763,208.299C169.493,192.907 282.408,27.715 288.521,17.527C289.524,15.856 291.767,15.272 293.526,16.225C295.286,17.178 295.9,19.309 294.897,20.981C288.818,31.113 176.381,195.317 170.681,210.624Z" style="fill:rgb(240,195,40);"/>
        </g>
        <g transform="matrix(-1.14842,0,0,-1.10982,1060.99,-56.1175)">
            <path d="M166.319,214.311C164.314,214.04 162.918,212.272 163.204,210.367C163.49,208.462 165.35,207.136 167.355,207.408C172.107,208.052 208.965,208.859 246.417,204.453C248.426,204.216 250.26,205.575 250.509,207.484C250.758,209.394 249.328,211.136 247.318,211.373C208.951,215.887 171.187,214.971 166.319,214.311Z" style="fill:rgb(240,195,40);"/>
        </g>
        <g transform="matrix(-1.14842,0,0,-1.10982,1060.99,-56.1175)">
            <path d="M292.041,15.276C293.151,13.667 295.428,13.218 297.122,14.273C298.815,15.329 299.288,17.492 298.177,19.101C297.494,20.089 297.281,20.874 296.857,22.646C295.536,28.165 293.103,41.003 279.974,82.03C265.658,126.767 255.621,195.227 250.366,210.993C249.754,212.827 247.69,213.845 245.759,213.264C243.829,212.683 242.758,210.722 243.369,208.887C248.621,193.131 258.645,124.711 272.952,80.001C285.974,39.308 288.391,26.574 289.7,21.1C290.404,18.162 290.909,16.914 292.041,15.276Z" style="fill:rgb(240,195,40);"/>
        </g>
    </g>
</svg>
