<?xml version="1.0" encoding="UTF-8" standalone="no"?>
<!DOCTYPE svg PUBLIC "-//W3C//DTD SVG 1.1//EN" "http://www.w3.org/Graphics/SVG/1.1/DTD/svg11.dtd">
<svg width="100%" height="100%" viewBox="0 0 512 512" version="1.1" xmlns="http://www.w3.org/2000/svg" xmlns:xlink="http://www.w3.org/1999/xlink" xml:space="preserve" xmlns:serif="http://www.serif.com/" style="fill-rule:evenodd;clip-rule:evenodd;stroke-linejoin:round;stroke-miterlimit:2;">
    <g transform="matrix(0.278271,0,0,0.276145,427.754,74.1697)">
        <g transform="matrix(1,0,0,1,-256,-256)">
            <g>
                <g id="Layer1">
                    <path d="M265.469,41.823C265.291,43.134 264.643,48.072 264.303,53.088C261.976,87.308 260.68,175.217 255.25,249.428C254.048,265.864 242.684,416.468 253.817,455.432C255.2,460.272 252.393,465.325 247.552,466.708C242.712,468.091 237.659,465.284 236.276,460.443C224.801,420.28 235.817,265.039 237.056,248.096C242.484,173.921 243.777,86.055 246.102,51.85C246.635,44.017 247.336,38.656 248.01,36.356L249.217,33.493L250.771,31.477C254.331,27.917 260.111,27.917 263.671,31.477C266.467,34.273 267.066,38.439 265.469,41.823Z" style="fill:rgb(40,138,240);"/>
                    <path d="M35.685,258.228C30.671,258.674 26.238,254.966 25.791,249.951C25.345,244.937 29.053,240.504 34.067,240.057C71.963,236.682 225.643,236.655 243.972,236.655C271.176,236.655 404.795,247.215 451.256,251.86C456.265,252.361 459.925,256.834 459.425,261.843C458.924,266.853 454.45,270.513 449.441,270.012C403.386,265.408 270.938,254.897 243.972,254.897C225.785,254.897 73.288,254.879 35.685,258.228Z" style="fill:rgb(40,138,240);"/>
                    <path d="M420.119,68.946C424.462,66.399 430.055,67.856 432.602,72.199C435.149,76.541 433.691,82.134 429.349,84.681C427.995,85.475 424.592,88.837 419.415,93.853C395.324,117.195 340.432,173.799 293.019,215.506C225.401,274.984 95.693,414.052 74.712,442.028C71.691,446.055 65.969,446.873 61.942,443.852C57.915,440.832 57.097,435.11 60.118,431.083C81.349,402.774 212.547,261.995 280.97,201.809C328.146,160.311 382.751,103.976 406.721,80.752C413.559,74.126 418.331,69.995 420.119,68.946Z" style="fill:rgb(40,138,240);"/>
                    <path d="M46.685,69.901C43.996,65.645 45.268,60.007 49.524,57.318C53.78,54.629 59.418,55.901 62.107,60.157C65.454,65.455 99.951,97.489 146.653,140.454C258.377,243.237 439.141,406.092 447.378,417.76C450.281,421.873 449.299,427.569 445.186,430.472C441.073,433.375 435.377,432.393 432.474,428.28C424.315,416.721 244.976,255.696 134.302,153.879C85.692,109.159 50.169,75.415 46.685,69.901Z" style="fill:rgb(40,138,240);"/>
                </g>
                <g id="Layer2">
                    <path d="M203.915,48.035C204.072,48.287 204.34,48.712 204.574,49.063C210.999,58.695 237.407,93.183 250.903,109.315C259.877,97.041 276.024,75.857 291.226,60.705C301.452,50.513 311.611,43.149 319.2,41.252C324.084,40.031 329.04,43.004 330.261,47.888C331.482,52.772 328.508,57.728 323.625,58.949C318.185,60.309 311.434,66.321 304.104,73.626C284.074,93.59 262.373,124.53 259.178,129.078C257.672,131.221 255.318,132.614 252.714,132.901C250.11,133.188 247.509,132.341 245.572,130.577C239.126,124.705 206.403,82.868 193.383,64.862C190.518,60.9 188.547,57.969 187.812,56.638L186.504,52.977C185.749,47.999 189.178,43.346 194.155,42.592C198.355,41.955 202.324,44.297 203.915,48.035Z" style="fill:rgb(40,138,240);"/>
                    <path d="M199.018,102.132C199.635,102.699 201.071,104.016 202.552,105.342C209.069,111.174 222.431,123.702 250.364,158.495C250.438,158.346 250.51,158.199 250.579,158.055C252.607,153.863 255.09,148.84 258.653,143.853C261.398,140.01 261.94,138.789 303.54,105.509C307.471,102.365 313.216,103.003 316.361,106.934C319.505,110.865 318.867,116.609 314.936,119.754C276.849,150.224 276.01,150.938 273.497,154.456C268.205,161.865 265.681,169.416 263.071,173.374C262.153,174.767 261.199,175.906 260.241,176.803L257.128,179.012L253.531,180.197L249.627,180.194C246.615,179.707 242.31,177.628 237.371,171.454C205.119,131.138 192.697,121.053 187.655,116.502C183.406,112.666 182.24,110.546 181.418,106.866C180.32,101.953 183.418,97.073 188.331,95.975C192.986,94.935 197.613,97.662 199.018,102.132Z" style="fill:rgb(40,138,240);"/>
                </g>
                <g id="Layer21" serif:id="Layer2" transform="matrix(0.687712,0.725984,-0.725984,0.687712,296.385,-146.418)">
                    <path d="M203.915,48.035C204.072,48.287 204.34,48.712 204.574,49.063C210.999,58.695 237.407,93.183 250.903,109.315C259.877,97.041 276.024,75.857 291.226,60.705C301.452,50.513 311.611,43.149 319.2,41.252C324.084,40.031 329.04,43.004 330.261,47.888C331.482,52.772 328.508,57.728 323.625,58.949C318.185,60.309 311.434,66.321 304.104,73.626C284.074,93.59 262.373,124.53 259.178,129.078C257.672,131.221 255.318,132.614 252.714,132.901C250.11,133.188 247.509,132.341 245.572,130.577C239.126,124.705 206.403,82.868 193.383,64.862C190.518,60.9 188.547,57.969 187.812,56.638L186.504,52.977C185.749,47.999 189.178,43.346 194.155,42.592C198.355,41.955 202.324,44.297 203.915,48.035Z" style="fill:rgb(40,138,240);"/>
                    <path d="M199.018,102.132C199.635,102.699 201.071,104.016 202.552,105.342C209.069,111.174 222.431,123.702 250.364,158.495C250.438,158.346 250.51,158.199 250.579,158.055C252.607,153.863 255.09,148.84 258.653,143.853C261.398,140.01 261.94,138.789 303.54,105.509C307.471,102.365 313.216,103.003 316.361,106.934C319.505,110.865 318.867,116.609 314.936,119.754C276.849,150.224 276.01,150.938 273.497,154.456C268.205,161.865 265.681,169.416 263.071,173.374C262.153,174.767 261.199,175.906 260.241,176.803L257.128,179.012L253.531,180.197L249.627,180.194C246.615,179.707 242.31,177.628 237.371,171.454C205.119,131.138 192.697,121.053 187.655,116.502C183.406,112.666 182.24,110.546 181.418,106.866C180.32,101.953 183.418,97.073 188.331,95.975C192.986,94.935 197.613,97.662 199.018,102.132Z" style="fill:rgb(40,138,240);"/>
                </g>
                <g id="Layer22" serif:id="Layer2" transform="matrix(0.687712,-0.725984,-0.725984,-0.687712,311.312,647.653)">
                    <path d="M203.915,48.035C202.324,44.297 198.355,41.955 194.155,42.592C189.178,43.346 185.749,47.999 186.504,52.977L187.812,56.638C188.547,57.969 190.518,60.9 193.383,64.862C206.403,82.868 239.126,124.705 245.572,130.577C247.509,132.341 250.11,133.188 252.714,132.901C255.318,132.614 257.672,131.221 259.178,129.078C262.373,124.53 284.074,93.59 304.104,73.626C311.434,66.321 318.185,60.309 323.625,58.949C328.508,57.728 331.482,52.772 330.261,47.888C329.04,43.004 324.084,40.031 319.2,41.252C311.611,43.149 301.452,50.513 291.226,60.705C276.024,75.857 259.877,97.041 250.903,109.315C237.407,93.183 210.999,58.695 204.574,49.063C204.34,48.712 204.072,48.287 203.915,48.035Z" style="fill:rgb(40,138,240);"/>
                    <path d="M250.364,158.495C222.431,123.702 209.069,111.174 202.552,105.342C201.071,104.016 199.635,102.699 199.018,102.132C197.613,97.662 192.986,94.935 188.331,95.975C183.418,97.073 180.32,101.953 181.418,106.866C182.24,110.546 183.406,112.666 187.655,116.502C192.697,121.053 205.119,131.138 237.371,171.454C242.31,177.628 246.615,179.707 249.627,180.194L253.531,180.197L257.128,179.012L260.241,176.803C261.199,175.906 262.153,174.767 263.071,173.374C265.681,169.416 268.205,161.865 273.497,154.456C276.01,150.938 276.849,150.224 314.936,119.754C318.867,116.609 319.505,110.865 316.361,106.934C313.216,103.003 307.471,102.365 303.54,105.509C261.94,138.789 261.398,140.01 258.653,143.853C255.09,148.84 252.607,153.863 250.579,158.055C250.51,158.199 250.438,158.346 250.364,158.495Z" style="fill:rgb(40,138,240);"/>
                </g>
                <g id="Layer23" serif:id="Layer2" transform="matrix(0.725984,-0.687712,0.687712,0.725984,-163.687,197.2)">
                    <path d="M203.915,48.035C204.072,48.287 204.34,48.712 204.574,49.063C210.999,58.695 237.407,93.183 250.903,109.315C259.877,97.041 276.024,75.857 291.226,60.705C301.452,50.513 311.611,43.149 319.2,41.252C324.084,40.031 329.04,43.004 330.261,47.888C331.482,52.772 328.508,57.728 323.625,58.949C318.185,60.309 311.434,66.321 304.104,73.626C284.074,93.59 262.373,124.53 259.178,129.078C257.672,131.221 255.318,132.614 252.714,132.901C250.11,133.188 247.509,132.341 245.572,130.577C239.126,124.705 206.403,82.868 193.383,64.862C190.518,60.9 188.547,57.969 187.812,56.638L186.504,52.977C185.749,47.999 189.178,43.346 194.155,42.592C198.355,41.955 202.324,44.297 203.915,48.035Z" style="fill:rgb(40,138,240);"/>
                    <path d="M199.018,102.132C199.635,102.699 201.071,104.016 202.552,105.342C209.069,111.174 222.431,123.702 250.364,158.495C250.438,158.346 250.51,158.199 250.579,158.055C252.607,153.863 255.09,148.84 258.653,143.853C261.398,140.01 261.94,138.789 303.54,105.509C307.471,102.365 313.216,103.003 316.361,106.934C319.505,110.865 318.867,116.609 314.936,119.754C276.849,150.224 276.01,150.938 273.497,154.456C268.205,161.865 265.681,169.416 263.071,173.374C262.153,174.767 261.199,175.906 260.241,176.803L257.128,179.012L253.531,180.197L249.627,180.194C246.615,179.707 242.31,177.628 237.371,171.454C205.119,131.138 192.697,121.053 187.655,116.502C183.406,112.666 182.24,110.546 181.418,106.866C180.32,101.953 183.418,97.073 188.331,95.975C192.986,94.935 197.613,97.662 199.018,102.132Z" style="fill:rgb(40,138,240);"/>
                </g>
                <g id="Layer24" serif:id="Layer2" transform="matrix(-0.687712,-0.725984,0.725984,-0.687712,194.928,650.673)">
                    <path d="M203.915,48.035C204.072,48.287 204.34,48.712 204.574,49.063C210.999,58.695 237.407,93.183 250.903,109.315C259.877,97.041 276.024,75.857 291.226,60.705C301.452,50.513 311.611,43.149 319.2,41.252C324.084,40.031 329.04,43.004 330.261,47.888C331.482,52.772 328.508,57.728 323.625,58.949C318.185,60.309 311.434,66.321 304.104,73.626C284.074,93.59 262.373,124.53 259.178,129.078C257.672,131.221 255.318,132.614 252.714,132.901C250.11,133.188 247.509,132.341 245.572,130.577C239.126,124.705 206.403,82.868 193.383,64.862C190.518,60.9 188.547,57.969 187.812,56.638L186.504,52.977C185.749,47.999 189.178,43.346 194.155,42.592C198.355,41.955 202.324,44.297 203.915,48.035Z" style="fill:rgb(40,138,240);"/>
                    <path d="M199.018,102.132C199.635,102.699 201.071,104.016 202.552,105.342C209.069,111.174 222.431,123.702 250.364,158.495C250.438,158.346 250.51,158.199 250.579,158.055C252.607,153.863 255.09,148.84 258.653,143.853C261.398,140.01 261.94,138.789 303.54,105.509C307.471,102.365 313.216,103.003 316.361,106.934C319.505,110.865 318.867,116.609 314.936,119.754C276.849,150.224 276.01,150.938 273.497,154.456C268.205,161.865 265.681,169.416 263.071,173.374C262.153,174.767 261.199,175.906 260.241,176.803L257.128,179.012L253.531,180.197L249.627,180.194C246.615,179.707 242.31,177.628 237.371,171.454C205.119,131.138 192.697,121.053 187.655,116.502C183.406,112.666 182.24,110.546 181.418,106.866C180.32,101.953 183.418,97.073 188.331,95.975C192.986,94.935 197.613,97.662 199.018,102.132Z" style="fill:rgb(40,138,240);"/>
                </g>
                <g id="Layer25" serif:id="Layer2" transform="matrix(1,0,0,-1,-9.68592,517.588)">
                    <path d="M203.915,48.035C202.324,44.297 198.355,41.955 194.155,42.592C189.178,43.346 185.749,47.999 186.504,52.977L187.812,56.638C188.547,57.969 190.518,60.9 193.383,64.862C206.403,82.868 239.126,124.705 245.572,130.577C247.509,132.341 250.11,133.188 252.714,132.901C255.318,132.614 257.672,131.221 259.178,129.078C262.373,124.53 284.074,93.59 304.104,73.626C311.434,66.321 318.185,60.309 323.625,58.949C328.508,57.728 331.482,52.772 330.261,47.888C329.04,43.004 324.084,40.031 319.2,41.252C311.611,43.149 301.452,50.513 291.226,60.705C276.024,75.857 259.877,97.041 250.903,109.315C237.407,93.183 210.999,58.695 204.574,49.063C204.34,48.712 204.072,48.287 203.915,48.035Z" style="fill:rgb(40,138,240);"/>
                    <path d="M250.364,158.495C222.431,123.702 209.069,111.174 202.552,105.342C201.071,104.016 199.635,102.699 199.018,102.132C197.613,97.662 192.986,94.935 188.331,95.975C183.418,97.073 180.32,101.953 181.418,106.866C182.24,110.546 183.406,112.666 187.655,116.502C192.697,121.053 205.119,131.138 237.371,171.454C242.31,177.628 246.615,179.707 249.627,180.194L253.531,180.197L257.128,179.012L260.241,176.803C261.199,175.906 262.153,174.767 263.071,173.374C265.681,169.416 268.205,161.865 273.497,154.456C276.01,150.938 276.849,150.224 314.936,119.754C318.867,116.609 319.505,110.865 316.361,106.934C313.216,103.003 307.471,102.365 303.54,105.509C261.94,138.789 261.398,140.01 258.653,143.853C255.09,148.84 252.607,153.863 250.579,158.055C250.51,158.199 250.438,158.346 250.364,158.495Z" style="fill:rgb(40,138,240);"/>
                </g>
                <g id="Layer26" serif:id="Layer2" transform="matrix(6.12323e-17,-1,-1,-6.12323e-17,520.565,508.091)">
                    <path d="M203.915,48.035C202.324,44.297 198.355,41.955 194.155,42.592C189.178,43.346 185.749,47.999 186.504,52.977L187.812,56.638C188.547,57.969 190.518,60.9 193.383,64.862C206.403,82.868 239.126,124.705 245.572,130.577C247.509,132.341 250.11,133.188 252.714,132.901C255.318,132.614 257.672,131.221 259.178,129.078C262.373,124.53 284.074,93.59 304.104,73.626C311.434,66.321 318.185,60.309 323.625,58.949C328.508,57.728 331.482,52.772 330.261,47.888C329.04,43.004 324.084,40.031 319.2,41.252C311.611,43.149 301.452,50.513 291.226,60.705C276.024,75.857 259.877,97.041 250.903,109.315C237.407,93.183 210.999,58.695 204.574,49.063C204.34,48.712 204.072,48.287 203.915,48.035Z" style="fill:rgb(40,138,240);"/>
                    <path d="M250.364,158.495C222.431,123.702 209.069,111.174 202.552,105.342C201.071,104.016 199.635,102.699 199.018,102.132C197.613,97.662 192.986,94.935 188.331,95.975C183.418,97.073 180.32,101.953 181.418,106.866C182.24,110.546 183.406,112.666 187.655,116.502C192.697,121.053 205.119,131.138 237.371,171.454C242.31,177.628 246.615,179.707 249.627,180.194L253.531,180.197L257.128,179.012L260.241,176.803C261.199,175.906 262.153,174.767 263.071,173.374C265.681,169.416 268.205,161.865 273.497,154.456C276.01,150.938 276.849,150.224 314.936,119.754C318.867,116.609 319.505,110.865 316.361,106.934C313.216,103.003 307.471,102.365 303.54,105.509C261.94,138.789 261.398,140.01 258.653,143.853C255.09,148.84 252.607,153.863 250.579,158.055C250.51,158.199 250.438,158.346 250.364,158.495Z" style="fill:rgb(40,138,240);"/>
                </g>
                <g id="Layer27" serif:id="Layer2" transform="matrix(-6.12323e-17,-1,1,-6.12323e-17,-32.4902,503.34)">
                    <path d="M203.915,48.035C204.072,48.287 204.34,48.712 204.574,49.063C210.999,58.695 237.407,93.183 250.903,109.315C259.877,97.041 276.024,75.857 291.226,60.705C301.452,50.513 311.611,43.149 319.2,41.252C324.084,40.031 329.04,43.004 330.261,47.888C331.482,52.772 328.508,57.728 323.625,58.949C318.185,60.309 311.434,66.321 304.104,73.626C284.074,93.59 262.373,124.53 259.178,129.078C257.672,131.221 255.318,132.614 252.714,132.901C250.11,133.188 247.509,132.341 245.572,130.577C239.126,124.705 206.403,82.868 193.383,64.862C190.518,60.9 188.547,57.969 187.812,56.638L186.504,52.977C185.749,47.999 189.178,43.346 194.155,42.592C198.355,41.955 202.324,44.297 203.915,48.035Z" style="fill:rgb(40,138,240);"/>
                    <path d="M199.018,102.132C199.635,102.699 201.071,104.016 202.552,105.342C209.069,111.174 222.431,123.702 250.364,158.495C250.438,158.346 250.51,158.199 250.579,158.055C252.607,153.863 255.09,148.84 258.653,143.853C261.398,140.01 261.94,138.789 303.54,105.509C307.471,102.365 313.216,103.003 316.361,106.934C319.505,110.865 318.867,116.609 314.936,119.754C276.849,150.224 276.01,150.938 273.497,154.456C268.205,161.865 265.681,169.416 263.071,173.374C262.153,174.767 261.199,175.906 260.241,176.803L257.128,179.012L253.531,180.197L249.627,180.194C246.615,179.707 242.31,177.628 237.371,171.454C205.119,131.138 192.697,121.053 187.655,116.502C183.406,112.666 182.24,110.546 181.418,106.866C180.32,101.953 183.418,97.073 188.331,95.975C192.986,94.935 197.613,97.662 199.018,102.132Z" style="fill:rgb(40,138,240);"/>
                </g>
            </g>
        </g>
    </g>
    <g transform="matrix(0.143722,0,0,0.142623,464.374,228.526)">
        <g transform="matrix(1,0,0,1,-256,-256)">
            <g>
                <g id="Layer11" serif:id="Layer1">
                    <path d="M265.469,41.823C265.291,43.134 264.643,48.072 264.303,53.088C261.976,87.308 260.68,175.217 255.25,249.428C254.048,265.864 242.684,416.468 253.817,455.432C255.2,460.272 252.393,465.325 247.552,466.708C242.712,468.091 237.659,465.284 236.276,460.443C224.801,420.28 235.817,265.039 237.056,248.096C242.484,173.921 243.777,86.055 246.102,51.85C246.635,44.017 247.336,38.656 248.01,36.356L249.217,33.493L250.771,31.477C254.331,27.917 260.111,27.917 263.671,31.477C266.467,34.273 267.066,38.439 265.469,41.823Z" style="fill:rgb(40,138,240);"/>
                    <path d="M35.685,258.228C30.671,258.674 26.238,254.966 25.791,249.951C25.345,244.937 29.053,240.504 34.067,240.057C71.963,236.682 225.643,236.655 243.972,236.655C271.176,236.655 404.795,247.215 451.256,251.86C456.265,252.361 459.925,256.834 459.425,261.843C458.924,266.853 454.45,270.513 449.441,270.012C403.386,265.408 270.938,254.897 243.972,254.897C225.785,254.897 73.288,254.879 35.685,258.228Z" style="fill:rgb(40,138,240);"/>
                    <path d="M420.119,68.946C424.462,66.399 430.055,67.856 432.602,72.199C435.149,76.541 433.691,82.134 429.349,84.681C427.995,85.475 424.592,88.837 419.415,93.853C395.324,117.195 340.432,173.799 293.019,215.506C225.401,274.984 95.693,414.052 74.712,442.028C71.691,446.055 65.969,446.873 61.942,443.852C57.915,440.832 57.097,435.11 60.118,431.083C81.349,402.774 212.547,261.995 280.97,201.809C328.146,160.311 382.751,103.976 406.721,80.752C413.559,74.126 418.331,69.995 420.119,68.946Z" style="fill:rgb(40,138,240);"/>
                    <path d="M46.685,69.901C43.996,65.645 45.268,60.007 49.524,57.318C53.78,54.629 59.418,55.901 62.107,60.157C65.454,65.455 99.951,97.489 146.653,140.454C258.377,243.237 439.141,406.092 447.378,417.76C450.281,421.873 449.299,427.569 445.186,430.472C441.073,433.375 435.377,432.393 432.474,428.28C424.315,416.721 244.976,255.696 134.302,153.879C85.692,109.159 50.169,75.415 46.685,69.901Z" style="fill:rgb(40,138,240);"/>
                </g>
                <g id="Layer28" serif:id="Layer2">
                    <path d="M203.915,48.035C204.072,48.287 204.34,48.712 204.574,49.063C210.999,58.695 237.407,93.183 250.903,109.315C259.877,97.041 276.024,75.857 291.226,60.705C301.452,50.513 311.611,43.149 319.2,41.252C324.084,40.031 329.04,43.004 330.261,47.888C331.482,52.772 328.508,57.728 323.625,58.949C318.185,60.309 311.434,66.321 304.104,73.626C284.074,93.59 262.373,124.53 259.178,129.078C257.672,131.221 255.318,132.614 252.714,132.901C250.11,133.188 247.509,132.341 245.572,130.577C239.126,124.705 206.403,82.868 193.383,64.862C190.518,60.9 188.547,57.969 187.812,56.638L186.504,52.977C185.749,47.999 189.178,43.346 194.155,42.592C198.355,41.955 202.324,44.297 203.915,48.035Z" style="fill:rgb(40,138,240);"/>
                    <path d="M199.018,102.132C199.635,102.699 201.071,104.016 202.552,105.342C209.069,111.174 222.431,123.702 250.364,158.495C250.438,158.346 250.51,158.199 250.579,158.055C252.607,153.863 255.09,148.84 258.653,143.853C261.398,140.01 261.94,138.789 303.54,105.509C307.471,102.365 313.216,103.003 316.361,106.934C319.505,110.865 318.867,116.609 314.936,119.754C276.849,150.224 276.01,150.938 273.497,154.456C268.205,161.865 265.681,169.416 263.071,173.374C262.153,174.767 261.199,175.906 260.241,176.803L257.128,179.012L253.531,180.197L249.627,180.194C246.615,179.707 242.31,177.628 237.371,171.454C205.119,131.138 192.697,121.053 187.655,116.502C183.406,112.666 182.24,110.546 181.418,106.866C180.32,101.953 183.418,97.073 188.331,95.975C192.986,94.935 197.613,97.662 199.018,102.132Z" style="fill:rgb(40,138,240);"/>
                </g>
                <g id="Layer29" serif:id="Layer2" transform="matrix(0.687712,0.725984,-0.725984,0.687712,296.385,-146.418)">
                    <path d="M203.915,48.035C204.072,48.287 204.34,48.712 204.574,49.063C210.999,58.695 237.407,93.183 250.903,109.315C259.877,97.041 276.024,75.857 291.226,60.705C301.452,50.513 311.611,43.149 319.2,41.252C324.084,40.031 329.04,43.004 330.261,47.888C331.482,52.772 328.508,57.728 323.625,58.949C318.185,60.309 311.434,66.321 304.104,73.626C284.074,93.59 262.373,124.53 259.178,129.078C257.672,131.221 255.318,132.614 252.714,132.901C250.11,133.188 247.509,132.341 245.572,130.577C239.126,124.705 206.403,82.868 193.383,64.862C190.518,60.9 188.547,57.969 187.812,56.638L186.504,52.977C185.749,47.999 189.178,43.346 194.155,42.592C198.355,41.955 202.324,44.297 203.915,48.035Z" style="fill:rgb(40,138,240);"/>
                    <path d="M199.018,102.132C199.635,102.699 201.071,104.016 202.552,105.342C209.069,111.174 222.431,123.702 250.364,158.495C250.438,158.346 250.51,158.199 250.579,158.055C252.607,153.863 255.09,148.84 258.653,143.853C261.398,140.01 261.94,138.789 303.54,105.509C307.471,102.365 313.216,103.003 316.361,106.934C319.505,110.865 318.867,116.609 314.936,119.754C276.849,150.224 276.01,150.938 273.497,154.456C268.205,161.865 265.681,169.416 263.071,173.374C262.153,174.767 261.199,175.906 260.241,176.803L257.128,179.012L253.531,180.197L249.627,180.194C246.615,179.707 242.31,177.628 237.371,171.454C205.119,131.138 192.697,121.053 187.655,116.502C183.406,112.666 182.24,110.546 181.418,106.866C180.32,101.953 183.418,97.073 188.331,95.975C192.986,94.935 197.613,97.662 199.018,102.132Z" style="fill:rgb(40,138,240);"/>
                </g>
                <g id="Layer210" serif:id="Layer2" transform="matrix(0.687712,-0.725984,-0.725984,-0.687712,311.312,647.653)">
                    <path d="M203.915,48.035C202.324,44.297 198.355,41.955 194.155,42.592C189.178,43.346 185.749,47.999 186.504,52.977L187.812,56.638C188.547,57.969 190.518,60.9 193.383,64.862C206.403,82.868 239.126,124.705 245.572,130.577C247.509,132.341 250.11,133.188 252.714,132.901C255.318,132.614 257.672,131.221 259.178,129.078C262.373,124.53 284.074,93.59 304.104,73.626C311.434,66.321 318.185,60.309 323.625,58.949C328.508,57.728 331.482,52.772 330.261,47.888C329.04,43.004 324.084,40.031 319.2,41.252C311.611,43.149 301.452,50.513 291.226,60.705C276.024,75.857 259.877,97.041 250.903,109.315C237.407,93.183 210.999,58.695 204.574,49.063C204.34,48.712 204.072,48.287 203.915,48.035Z" style="fill:rgb(40,138,240);"/>
                    <path d="M250.364,158.495C222.431,123.702 209.069,111.174 202.552,105.342C201.071,104.016 199.635,102.699 199.018,102.132C197.613,97.662 192.986,94.935 188.331,95.975C183.418,97.073 180.32,101.953 181.418,106.866C182.24,110.546 183.406,112.666 187.655,116.502C192.697,121.053 205.119,131.138 237.371,171.454C242.31,177.628 246.615,179.707 249.627,180.194L253.531,180.197L257.128,179.012L260.241,176.803C261.199,175.906 262.153,174.767 263.071,173.374C265.681,169.416 268.205,161.865 273.497,154.456C276.01,150.938 276.849,150.224 314.936,119.754C318.867,116.609 319.505,110.865 316.361,106.934C313.216,103.003 307.471,102.365 303.54,105.509C261.94,138.789 261.398,140.01 258.653,143.853C255.09,148.84 252.607,153.863 250.579,158.055C250.51,158.199 250.438,158.346 250.364,158.495Z" style="fill:rgb(40,138,240);"/>
                </g>
                <g id="Layer211" serif:id="Layer2" transform="matrix(0.725984,-0.687712,0.687712,0.725984,-163.687,197.2)">
                    <path d="M203.915,48.035C204.072,48.287 204.34,48.712 204.574,49.063C210.999,58.695 237.407,93.183 250.903,109.315C259.877,97.041 276.024,75.857 291.226,60.705C301.452,50.513 311.611,43.149 319.2,41.252C324.084,40.031 329.04,43.004 330.261,47.888C331.482,52.772 328.508,57.728 323.625,58.949C318.185,60.309 311.434,66.321 304.104,73.626C284.074,93.59 262.373,124.53 259.178,129.078C257.672,131.221 255.318,132.614 252.714,132.901C250.11,133.188 247.509,132.341 245.572,130.577C239.126,124.705 206.403,82.868 193.383,64.862C190.518,60.9 188.547,57.969 187.812,56.638L186.504,52.977C185.749,47.999 189.178,43.346 194.155,42.592C198.355,41.955 202.324,44.297 203.915,48.035Z" style="fill:rgb(40,138,240);"/>
                    <path d="M199.018,102.132C199.635,102.699 201.071,104.016 202.552,105.342C209.069,111.174 222.431,123.702 250.364,158.495C250.438,158.346 250.51,158.199 250.579,158.055C252.607,153.863 255.09,148.84 258.653,143.853C261.398,140.01 261.94,138.789 303.54,105.509C307.471,102.365 313.216,103.003 316.361,106.934C319.505,110.865 318.867,116.609 314.936,119.754C276.849,150.224 276.01,150.938 273.497,154.456C268.205,161.865 265.681,169.416 263.071,173.374C262.153,174.767 261.199,175.906 260.241,176.803L257.128,179.012L253.531,180.197L249.627,180.194C246.615,179.707 242.31,177.628 237.371,171.454C205.119,131.138 192.697,121.053 187.655,116.502C183.406,112.666 182.24,110.546 181.418,106.866C180.32,101.953 183.418,97.073 188.331,95.975C192.986,94.935 197.613,97.662 199.018,102.132Z" style="fill:rgb(40,138,240);"/>
                </g>
                <g id="Layer212" serif:id="Layer2" transform="matrix(-0.687712,-0.725984,0.725984,-0.687712,194.928,650.673)">
                    <path d="M203.915,48.035C204.072,48.287 204.34,48.712 204.574,49.063C210.999,58.695 237.407,93.183 250.903,109.315C259.877,97.041 276.024,75.857 291.226,60.705C301.452,50.513 311.611,43.149 319.2,41.252C324.084,40.031 329.04,43.004 330.261,47.888C331.482,52.772 328.508,57.728 323.625,58.949C318.185,60.309 311.434,66.321 304.104,73.626C284.074,93.59 262.373,124.53 259.178,129.078C257.672,131.221 255.318,132.614 252.714,132.901C250.11,133.188 247.509,132.341 245.572,130.577C239.126,124.705 206.403,82.868 193.383,64.862C190.518,60.9 188.547,57.969 187.812,56.638L186.504,52.977C185.749,47.999 189.178,43.346 194.155,42.592C198.355,41.955 202.324,44.297 203.915,48.035Z" style="fill:rgb(40,138,240);"/>
                    <path d="M199.018,102.132C199.635,102.699 201.071,104.016 202.552,105.342C209.069,111.174 222.431,123.702 250.364,158.495C250.438,158.346 250.51,158.199 250.579,158.055C252.607,153.863 255.09,148.84 258.653,143.853C261.398,140.01 261.94,138.789 303.54,105.509C307.471,102.365 313.216,103.003 316.361,106.934C319.505,110.865 318.867,116.609 314.936,119.754C276.849,150.224 276.01,150.938 273.497,154.456C268.205,161.865 265.681,169.416 263.071,173.374C262.153,174.767 261.199,175.906 260.241,176.803L257.128,179.012L253.531,180.197L249.627,180.194C246.615,179.707 242.31,177.628 237.371,171.454C205.119,131.138 192.697,121.053 187.655,116.502C183.406,112.666 182.24,110.546 181.418,106.866C180.32,101.953 183.418,97.073 188.331,95.975C192.986,94.935 197.613,97.662 199.018,102.132Z" style="fill:rgb(40,138,240);"/>
                </g>
                <g id="Layer213" serif:id="Layer2" transform="matrix(1,0,0,-1,-9.68592,517.588)">
                    <path d="M203.915,48.035C202.324,44.297 198.355,41.955 194.155,42.592C189.178,43.346 185.749,47.999 186.504,52.977L187.812,56.638C188.547,57.969 190.518,60.9 193.383,64.862C206.403,82.868 239.126,124.705 245.572,130.577C247.509,132.341 250.11,133.188 252.714,132.901C255.318,132.614 257.672,131.221 259.178,129.078C262.373,124.53 284.074,93.59 304.104,73.626C311.434,66.321 318.185,60.309 323.625,58.949C328.508,57.728 331.482,52.772 330.261,47.888C329.04,43.004 324.084,40.031 319.2,41.252C311.611,43.149 301.452,50.513 291.226,60.705C276.024,75.857 259.877,97.041 250.903,109.315C237.407,93.183 210.999,58.695 204.574,49.063C204.34,48.712 204.072,48.287 203.915,48.035Z" style="fill:rgb(40,138,240);"/>
                    <path d="M250.364,158.495C222.431,123.702 209.069,111.174 202.552,105.342C201.071,104.016 199.635,102.699 199.018,102.132C197.613,97.662 192.986,94.935 188.331,95.975C183.418,97.073 180.32,101.953 181.418,106.866C182.24,110.546 183.406,112.666 187.655,116.502C192.697,121.053 205.119,131.138 237.371,171.454C242.31,177.628 246.615,179.707 249.627,180.194L253.531,180.197L257.128,179.012L260.241,176.803C261.199,175.906 262.153,174.767 263.071,173.374C265.681,169.416 268.205,161.865 273.497,154.456C276.01,150.938 276.849,150.224 314.936,119.754C318.867,116.609 319.505,110.865 316.361,106.934C313.216,103.003 307.471,102.365 303.54,105.509C261.94,138.789 261.398,140.01 258.653,143.853C255.09,148.84 252.607,153.863 250.579,158.055C250.51,158.199 250.438,158.346 250.364,158.495Z" style="fill:rgb(40,138,240);"/>
                </g>
                <g id="Layer214" serif:id="Layer2" transform="matrix(6.12323e-17,-1,-1,-6.12323e-17,520.565,508.091)">
                    <path d="M203.915,48.035C202.324,44.297 198.355,41.955 194.155,42.592C189.178,43.346 185.749,47.999 186.504,52.977L187.812,56.638C188.547,57.969 190.518,60.9 193.383,64.862C206.403,82.868 239.126,124.705 245.572,130.577C247.509,132.341 250.11,133.188 252.714,132.901C255.318,132.614 257.672,131.221 259.178,129.078C262.373,124.53 284.074,93.59 304.104,73.626C311.434,66.321 318.185,60.309 323.625,58.949C328.508,57.728 331.482,52.772 330.261,47.888C329.04,43.004 324.084,40.031 319.2,41.252C311.611,43.149 301.452,50.513 291.226,60.705C276.024,75.857 259.877,97.041 250.903,109.315C237.407,93.183 210.999,58.695 204.574,49.063C204.34,48.712 204.072,48.287 203.915,48.035Z" style="fill:rgb(40,138,240);"/>
                    <path d="M250.364,158.495C222.431,123.702 209.069,111.174 202.552,105.342C201.071,104.016 199.635,102.699 199.018,102.132C197.613,97.662 192.986,94.935 188.331,95.975C183.418,97.073 180.32,101.953 181.418,106.866C182.24,110.546 183.406,112.666 187.655,116.502C192.697,121.053 205.119,131.138 237.371,171.454C242.31,177.628 246.615,179.707 249.627,180.194L253.531,180.197L257.128,179.012L260.241,176.803C261.199,175.906 262.153,174.767 263.071,173.374C265.681,169.416 268.205,161.865 273.497,154.456C276.01,150.938 276.849,150.224 314.936,119.754C318.867,116.609 319.505,110.865 316.361,106.934C313.216,103.003 307.471,102.365 303.54,105.509C261.94,138.789 261.398,140.01 258.653,143.853C255.09,148.84 252.607,153.863 250.579,158.055C250.51,158.199 250.438,158.346 250.364,158.495Z" style="fill:rgb(40,138,240);"/>
                </g>
                <g id="Layer215" serif:id="Layer2" transform="matrix(-6.12323e-17,-1,1,-6.12323e-17,-32.4902,503.34)">
                    <path d="M203.915,48.035C204.072,48.287 204.34,48.712 204.574,49.063C210.999,58.695 237.407,93.183 250.903,109.315C259.877,97.041 276.024,75.857 291.226,60.705C301.452,50.513 311.611,43.149 319.2,41.252C324.084,40.031 329.04,43.004 330.261,47.888C331.482,52.772 328.508,57.728 323.625,58.949C318.185,60.309 311.434,66.321 304.104,73.626C284.074,93.59 262.373,124.53 259.178,129.078C257.672,131.221 255.318,132.614 252.714,132.901C250.11,133.188 247.509,132.341 245.572,130.577C239.126,124.705 206.403,82.868 193.383,64.862C190.518,60.9 188.547,57.969 187.812,56.638L186.504,52.977C185.749,47.999 189.178,43.346 194.155,42.592C198.355,41.955 202.324,44.297 203.915,48.035Z" style="fill:rgb(40,138,240);"/>
                    <path d="M199.018,102.132C199.635,102.699 201.071,104.016 202.552,105.342C209.069,111.174 222.431,123.702 250.364,158.495C250.438,158.346 250.51,158.199 250.579,158.055C252.607,153.863 255.09,148.84 258.653,143.853C261.398,140.01 261.94,138.789 303.54,105.509C307.471,102.365 313.216,103.003 316.361,106.934C319.505,110.865 318.867,116.609 314.936,119.754C276.849,150.224 276.01,150.938 273.497,154.456C268.205,161.865 265.681,169.416 263.071,173.374C262.153,174.767 261.199,175.906 260.241,176.803L257.128,179.012L253.531,180.197L249.627,180.194C246.615,179.707 242.31,177.628 237.371,171.454C205.119,131.138 192.697,121.053 187.655,116.502C183.406,112.666 182.24,110.546 181.418,106.866C180.32,101.953 183.418,97.073 188.331,95.975C192.986,94.935 197.613,97.662 199.018,102.132Z" style="fill:rgb(40,138,240);"/>
                </g>
            </g>
        </g>
    </g>
    <g transform="matrix(0.78177,0,0,0.775796,214.378,306.424)">
        <g transform="matrix(1,0,0,1,-256,-256)">
            <g>
                <g id="Layer12" serif:id="Layer1">
                    <path d="M265.469,41.823C265.291,43.134 264.643,48.072 264.303,53.088C261.976,87.308 260.68,175.217 255.25,249.428C254.048,265.864 242.684,416.468 253.817,455.432C255.2,460.272 252.393,465.325 247.552,466.708C242.712,468.091 237.659,465.284 236.276,460.443C224.801,420.28 235.817,265.039 237.056,248.096C242.484,173.921 243.777,86.055 246.102,51.85C246.635,44.017 247.336,38.656 248.01,36.356L249.217,33.493L250.771,31.477C254.331,27.917 260.111,27.917 263.671,31.477C266.467,34.273 267.066,38.439 265.469,41.823Z" style="fill:rgb(40,138,240);"/>
                    <path d="M35.685,258.228C30.671,258.674 26.238,254.966 25.791,249.951C25.345,244.937 29.053,240.504 34.067,240.057C71.963,236.682 225.643,236.655 243.972,236.655C271.176,236.655 404.795,247.215 451.256,251.86C456.265,252.361 459.925,256.834 459.425,261.843C458.924,266.853 454.45,270.513 449.441,270.012C403.386,265.408 270.938,254.897 243.972,254.897C225.785,254.897 73.288,254.879 35.685,258.228Z" style="fill:rgb(40,138,240);"/>
                    <path d="M420.119,68.946C424.462,66.399 430.055,67.856 432.602,72.199C435.149,76.541 433.691,82.134 429.349,84.681C427.995,85.475 424.592,88.837 419.415,93.853C395.324,117.195 340.432,173.799 293.019,215.506C225.401,274.984 95.693,414.052 74.712,442.028C71.691,446.055 65.969,446.873 61.942,443.852C57.915,440.832 57.097,435.11 60.118,431.083C81.349,402.774 212.547,261.995 280.97,201.809C328.146,160.311 382.751,103.976 406.721,80.752C413.559,74.126 418.331,69.995 420.119,68.946Z" style="fill:rgb(40,138,240);"/>
                    <path d="M46.685,69.901C43.996,65.645 45.268,60.007 49.524,57.318C53.78,54.629 59.418,55.901 62.107,60.157C65.454,65.455 99.951,97.489 146.653,140.454C258.377,243.237 439.141,406.092 447.378,417.76C450.281,421.873 449.299,427.569 445.186,430.472C441.073,433.375 435.377,432.393 432.474,428.28C424.315,416.721 244.976,255.696 134.302,153.879C85.692,109.159 50.169,75.415 46.685,69.901Z" style="fill:rgb(40,138,240);"/>
                </g>
                <g id="Layer216" serif:id="Layer2">
                    <path d="M203.915,48.035C204.072,48.287 204.34,48.712 204.574,49.063C210.999,58.695 237.407,93.183 250.903,109.315C259.877,97.041 276.024,75.857 291.226,60.705C301.452,50.513 311.611,43.149 319.2,41.252C324.084,40.031 329.04,43.004 330.261,47.888C331.482,52.772 328.508,57.728 323.625,58.949C318.185,60.309 311.434,66.321 304.104,73.626C284.074,93.59 262.373,124.53 259.178,129.078C257.672,131.221 255.318,132.614 252.714,132.901C250.11,133.188 247.509,132.341 245.572,130.577C239.126,124.705 206.403,82.868 193.383,64.862C190.518,60.9 188.547,57.969 187.812,56.638L186.504,52.977C185.749,47.999 189.178,43.346 194.155,42.592C198.355,41.955 202.324,44.297 203.915,48.035Z" style="fill:rgb(40,138,240);"/>
                    <path d="M199.018,102.132C199.635,102.699 201.071,104.016 202.552,105.342C209.069,111.174 222.431,123.702 250.364,158.495C250.438,158.346 250.51,158.199 250.579,158.055C252.607,153.863 255.09,148.84 258.653,143.853C261.398,140.01 261.94,138.789 303.54,105.509C307.471,102.365 313.216,103.003 316.361,106.934C319.505,110.865 318.867,116.609 314.936,119.754C276.849,150.224 276.01,150.938 273.497,154.456C268.205,161.865 265.681,169.416 263.071,173.374C262.153,174.767 261.199,175.906 260.241,176.803L257.128,179.012L253.531,180.197L249.627,180.194C246.615,179.707 242.31,177.628 237.371,171.454C205.119,131.138 192.697,121.053 187.655,116.502C183.406,112.666 182.24,110.546 181.418,106.866C180.32,101.953 183.418,97.073 188.331,95.975C192.986,94.935 197.613,97.662 199.018,102.132Z" style="fill:rgb(40,138,240);"/>
                </g>
                <g id="Layer217" serif:id="Layer2" transform="matrix(0.687712,0.725984,-0.725984,0.687712,296.385,-146.418)">
                    <path d="M203.915,48.035C204.072,48.287 204.34,48.712 204.574,49.063C210.999,58.695 237.407,93.183 250.903,109.315C259.877,97.041 276.024,75.857 291.226,60.705C301.452,50.513 311.611,43.149 319.2,41.252C324.084,40.031 329.04,43.004 330.261,47.888C331.482,52.772 328.508,57.728 323.625,58.949C318.185,60.309 311.434,66.321 304.104,73.626C284.074,93.59 262.373,124.53 259.178,129.078C257.672,131.221 255.318,132.614 252.714,132.901C250.11,133.188 247.509,132.341 245.572,130.577C239.126,124.705 206.403,82.868 193.383,64.862C190.518,60.9 188.547,57.969 187.812,56.638L186.504,52.977C185.749,47.999 189.178,43.346 194.155,42.592C198.355,41.955 202.324,44.297 203.915,48.035Z" style="fill:rgb(40,138,240);"/>
                    <path d="M199.018,102.132C199.635,102.699 201.071,104.016 202.552,105.342C209.069,111.174 222.431,123.702 250.364,158.495C250.438,158.346 250.51,158.199 250.579,158.055C252.607,153.863 255.09,148.84 258.653,143.853C261.398,140.01 261.94,138.789 303.54,105.509C307.471,102.365 313.216,103.003 316.361,106.934C319.505,110.865 318.867,116.609 314.936,119.754C276.849,150.224 276.01,150.938 273.497,154.456C268.205,161.865 265.681,169.416 263.071,173.374C262.153,174.767 261.199,175.906 260.241,176.803L257.128,179.012L253.531,180.197L249.627,180.194C246.615,179.707 242.31,177.628 237.371,171.454C205.119,131.138 192.697,121.053 187.655,116.502C183.406,112.666 182.24,110.546 181.418,106.866C180.32,101.953 183.418,97.073 188.331,95.975C192.986,94.935 197.613,97.662 199.018,102.132Z" style="fill:rgb(40,138,240);"/>
                </g>
                <g id="Layer218" serif:id="Layer2" transform="matrix(0.687712,-0.725984,-0.725984,-0.687712,311.312,647.653)">
                    <path d="M203.915,48.035C202.324,44.297 198.355,41.955 194.155,42.592C189.178,43.346 185.749,47.999 186.504,52.977L187.812,56.638C188.547,57.969 190.518,60.9 193.383,64.862C206.403,82.868 239.126,124.705 245.572,130.577C247.509,132.341 250.11,133.188 252.714,132.901C255.318,132.614 257.672,131.221 259.178,129.078C262.373,124.53 284.074,93.59 304.104,73.626C311.434,66.321 318.185,60.309 323.625,58.949C328.508,57.728 331.482,52.772 330.261,47.888C329.04,43.004 324.084,40.031 319.2,41.252C311.611,43.149 301.452,50.513 291.226,60.705C276.024,75.857 259.877,97.041 250.903,109.315C237.407,93.183 210.999,58.695 204.574,49.063C204.34,48.712 204.072,48.287 203.915,48.035Z" style="fill:rgb(40,138,240);"/>
                    <path d="M250.364,158.495C222.431,123.702 209.069,111.174 202.552,105.342C201.071,104.016 199.635,102.699 199.018,102.132C197.613,97.662 192.986,94.935 188.331,95.975C183.418,97.073 180.32,101.953 181.418,106.866C182.24,110.546 183.406,112.666 187.655,116.502C192.697,121.053 205.119,131.138 237.371,171.454C242.31,177.628 246.615,179.707 249.627,180.194L253.531,180.197L257.128,179.012L260.241,176.803C261.199,175.906 262.153,174.767 263.071,173.374C265.681,169.416 268.205,161.865 273.497,154.456C276.01,150.938 276.849,150.224 314.936,119.754C318.867,116.609 319.505,110.865 316.361,106.934C313.216,103.003 307.471,102.365 303.54,105.509C261.94,138.789 261.398,140.01 258.653,143.853C255.09,148.84 252.607,153.863 250.579,158.055C250.51,158.199 250.438,158.346 250.364,158.495Z" style="fill:rgb(40,138,240);"/>
                </g>
                <g id="Layer219" serif:id="Layer2" transform="matrix(0.725984,-0.687712,0.687712,0.725984,-163.687,197.2)">
                    <path d="M203.915,48.035C204.072,48.287 204.34,48.712 204.574,49.063C210.999,58.695 237.407,93.183 250.903,109.315C259.877,97.041 276.024,75.857 291.226,60.705C301.452,50.513 311.611,43.149 319.2,41.252C324.084,40.031 329.04,43.004 330.261,47.888C331.482,52.772 328.508,57.728 323.625,58.949C318.185,60.309 311.434,66.321 304.104,73.626C284.074,93.59 262.373,124.53 259.178,129.078C257.672,131.221 255.318,132.614 252.714,132.901C250.11,133.188 247.509,132.341 245.572,130.577C239.126,124.705 206.403,82.868 193.383,64.862C190.518,60.9 188.547,57.969 187.812,56.638L186.504,52.977C185.749,47.999 189.178,43.346 194.155,42.592C198.355,41.955 202.324,44.297 203.915,48.035Z" style="fill:rgb(40,138,240);"/>
                    <path d="M199.018,102.132C199.635,102.699 201.071,104.016 202.552,105.342C209.069,111.174 222.431,123.702 250.364,158.495C250.438,158.346 250.51,158.199 250.579,158.055C252.607,153.863 255.09,148.84 258.653,143.853C261.398,140.01 261.94,138.789 303.54,105.509C307.471,102.365 313.216,103.003 316.361,106.934C319.505,110.865 318.867,116.609 314.936,119.754C276.849,150.224 276.01,150.938 273.497,154.456C268.205,161.865 265.681,169.416 263.071,173.374C262.153,174.767 261.199,175.906 260.241,176.803L257.128,179.012L253.531,180.197L249.627,180.194C246.615,179.707 242.31,177.628 237.371,171.454C205.119,131.138 192.697,121.053 187.655,116.502C183.406,112.666 182.24,110.546 181.418,106.866C180.32,101.953 183.418,97.073 188.331,95.975C192.986,94.935 197.613,97.662 199.018,102.132Z" style="fill:rgb(40,138,240);"/>
                </g>
                <g id="Layer220" serif:id="Layer2" transform="matrix(-0.687712,-0.725984,0.725984,-0.687712,194.928,650.673)">
                    <path d="M203.915,48.035C204.072,48.287 204.34,48.712 204.574,49.063C210.999,58.695 237.407,93.183 250.903,109.315C259.877,97.041 276.024,75.857 291.226,60.705C301.452,50.513 311.611,43.149 319.2,41.252C324.084,40.031 329.04,43.004 330.261,47.888C331.482,52.772 328.508,57.728 323.625,58.949C318.185,60.309 311.434,66.321 304.104,73.626C284.074,93.59 262.373,124.53 259.178,129.078C257.672,131.221 255.318,132.614 252.714,132.901C250.11,133.188 247.509,132.341 245.572,130.577C239.126,124.705 206.403,82.868 193.383,64.862C190.518,60.9 188.547,57.969 187.812,56.638L186.504,52.977C185.749,47.999 189.178,43.346 194.155,42.592C198.355,41.955 202.324,44.297 203.915,48.035Z" style="fill:rgb(40,138,240);"/>
                    <path d="M199.018,102.132C199.635,102.699 201.071,104.016 202.552,105.342C209.069,111.174 222.431,123.702 250.364,158.495C250.438,158.346 250.51,158.199 250.579,158.055C252.607,153.863 255.09,148.84 258.653,143.853C261.398,140.01 261.94,138.789 303.54,105.509C307.471,102.365 313.216,103.003 316.361,106.934C319.505,110.865 318.867,116.609 314.936,119.754C276.849,150.224 276.01,150.938 273.497,154.456C268.205,161.865 265.681,169.416 263.071,173.374C262.153,174.767 261.199,175.906 260.241,176.803L257.128,179.012L253.531,180.197L249.627,180.194C246.615,179.707 242.31,177.628 237.371,171.454C205.119,131.138 192.697,121.053 187.655,116.502C183.406,112.666 182.24,110.546 181.418,106.866C180.32,101.953 183.418,97.073 188.331,95.975C192.986,94.935 197.613,97.662 199.018,102.132Z" style="fill:rgb(40,138,240);"/>
                </g>
                <g id="Layer221" serif:id="Layer2" transform="matrix(1,0,0,-1,-9.68592,517.588)">
                    <path d="M203.915,48.035C202.324,44.297 198.355,41.955 194.155,42.592C189.178,43.346 185.749,47.999 186.504,52.977L187.812,56.638C188.547,57.969 190.518,60.9 193.383,64.862C206.403,82.868 239.126,124.705 245.572,130.577C247.509,132.341 250.11,133.188 252.714,132.901C255.318,132.614 257.672,131.221 259.178,129.078C262.373,124.53 284.074,93.59 304.104,73.626C311.434,66.321 318.185,60.309 323.625,58.949C328.508,57.728 331.482,52.772 330.261,47.888C329.04,43.004 324.084,40.031 319.2,41.252C311.611,43.149 301.452,50.513 291.226,60.705C276.024,75.857 259.877,97.041 250.903,109.315C237.407,93.183 210.999,58.695 204.574,49.063C204.34,48.712 204.072,48.287 203.915,48.035Z" style="fill:rgb(40,138,240);"/>
                    <path d="M250.364,158.495C222.431,123.702 209.069,111.174 202.552,105.342C201.071,104.016 199.635,102.699 199.018,102.132C197.613,97.662 192.986,94.935 188.331,95.975C183.418,97.073 180.32,101.953 181.418,106.866C182.24,110.546 183.406,112.666 187.655,116.502C192.697,121.053 205.119,131.138 237.371,171.454C242.31,177.628 246.615,179.707 249.627,180.194L253.531,180.197L257.128,179.012L260.241,176.803C261.199,175.906 262.153,174.767 263.071,173.374C265.681,169.416 268.205,161.865 273.497,154.456C276.01,150.938 276.849,150.224 314.936,119.754C318.867,116.609 319.505,110.865 316.361,106.934C313.216,103.003 307.471,102.365 303.54,105.509C261.94,138.789 261.398,140.01 258.653,143.853C255.09,148.84 252.607,153.863 250.579,158.055C250.51,158.199 250.438,158.346 250.364,158.495Z" style="fill:rgb(40,138,240);"/>
                </g>
                <g id="Layer222" serif:id="Layer2" transform="matrix(6.12323e-17,-1,-1,-6.12323e-17,520.565,508.091)">
                    <path d="M203.915,48.035C202.324,44.297 198.355,41.955 194.155,42.592C189.178,43.346 185.749,47.999 186.504,52.977L187.812,56.638C188.547,57.969 190.518,60.9 193.383,64.862C206.403,82.868 239.126,124.705 245.572,130.577C247.509,132.341 250.11,133.188 252.714,132.901C255.318,132.614 257.672,131.221 259.178,129.078C262.373,124.53 284.074,93.59 304.104,73.626C311.434,66.321 318.185,60.309 323.625,58.949C328.508,57.728 331.482,52.772 330.261,47.888C329.04,43.004 324.084,40.031 319.2,41.252C311.611,43.149 301.452,50.513 291.226,60.705C276.024,75.857 259.877,97.041 250.903,109.315C237.407,93.183 210.999,58.695 204.574,49.063C204.34,48.712 204.072,48.287 203.915,48.035Z" style="fill:rgb(40,138,240);"/>
                    <path d="M250.364,158.495C222.431,123.702 209.069,111.174 202.552,105.342C201.071,104.016 199.635,102.699 199.018,102.132C197.613,97.662 192.986,94.935 188.331,95.975C183.418,97.073 180.32,101.953 181.418,106.866C182.24,110.546 183.406,112.666 187.655,116.502C192.697,121.053 205.119,131.138 237.371,171.454C242.31,177.628 246.615,179.707 249.627,180.194L253.531,180.197L257.128,179.012L260.241,176.803C261.199,175.906 262.153,174.767 263.071,173.374C265.681,169.416 268.205,161.865 273.497,154.456C276.01,150.938 276.849,150.224 314.936,119.754C318.867,116.609 319.505,110.865 316.361,106.934C313.216,103.003 307.471,102.365 303.54,105.509C261.94,138.789 261.398,140.01 258.653,143.853C255.09,148.84 252.607,153.863 250.579,158.055C250.51,158.199 250.438,158.346 250.364,158.495Z" style="fill:rgb(40,138,240);"/>
                </g>
                <g id="Layer223" serif:id="Layer2" transform="matrix(-6.12323e-17,-1,1,-6.12323e-17,-32.4902,503.34)">
                    <path d="M203.915,48.035C204.072,48.287 204.34,48.712 204.574,49.063C210.999,58.695 237.407,93.183 250.903,109.315C259.877,97.041 276.024,75.857 291.226,60.705C301.452,50.513 311.611,43.149 319.2,41.252C324.084,40.031 329.04,43.004 330.261,47.888C331.482,52.772 328.508,57.728 323.625,58.949C318.185,60.309 311.434,66.321 304.104,73.626C284.074,93.59 262.373,124.53 259.178,129.078C257.672,131.221 255.318,132.614 252.714,132.901C250.11,133.188 247.509,132.341 245.572,130.577C239.126,124.705 206.403,82.868 193.383,64.862C190.518,60.9 188.547,57.969 187.812,56.638L186.504,52.977C185.749,47.999 189.178,43.346 194.155,42.592C198.355,41.955 202.324,44.297 203.915,48.035Z" style="fill:rgb(40,138,240);"/>
                    <path d="M199.018,102.132C199.635,102.699 201.071,104.016 202.552,105.342C209.069,111.174 222.431,123.702 250.364,158.495C250.438,158.346 250.51,158.199 250.579,158.055C252.607,153.863 255.09,148.84 258.653,143.853C261.398,140.01 261.94,138.789 303.54,105.509C307.471,102.365 313.216,103.003 316.361,106.934C319.505,110.865 318.867,116.609 314.936,119.754C276.849,150.224 276.01,150.938 273.497,154.456C268.205,161.865 265.681,169.416 263.071,173.374C262.153,174.767 261.199,175.906 260.241,176.803L257.128,179.012L253.531,180.197L249.627,180.194C246.615,179.707 242.31,177.628 237.371,171.454C205.119,131.138 192.697,121.053 187.655,116.502C183.406,112.666 182.24,110.546 181.418,106.866C180.32,101.953 183.418,97.073 188.331,95.975C192.986,94.935 197.613,97.662 199.018,102.132Z" style="fill:rgb(40,138,240);"/>
                </g>
            </g>
        </g>
    </g>
</svg>
