<?xml version="1.0" encoding="utf-8"?>
<svg xmlns="http://www.w3.org/2000/svg" viewBox="0 0 500 500" xmlns:bx="https://boxy-svg.com">
  <rect x="18.334" y="15.285" width="464.875" height="468.222" style="fill: rgb(48, 137, 62); stroke: black; stroke-width: 34.78px;"/>
  <path d="M 62.393 392.167 C 61.555 391.227 62.557 390.485 62.557 390.485 L 64.126 390.128 C 64.37 390.052 64.641 390.036 64.897 389.992 C 64.661 389.573 64.702 389.055 65.045 388.68 C 65.101 388.62 65.163 388.565 65.229 388.517 C 65.355 388.421 65.654 388.196 65.915 388.001 C 65.467 387.611 65.224 387.155 65.446 386.656 L 65.476 384.645 C 65.334 384.263 64.391 383.178 64.688 382.853 C 65.147 382.353 66.627 384.026 67.185 384.46 L 68.497 385.48 L 68.488 385.489 C 68.952 385.872 69.392 386.268 69.778 386.695 C 70.161 386.032 70.573 385.379 70.999 384.74 C 70.467 383.087 70.653 381.273 70.638 379.596 C 70.638 379.555 70.573 378.219 70.577 378.216 C 70.734 378.106 71.715 378.165 72.558 378.883 C 73.192 379.422 74.563 378.56 74.882 379.14 C 74.96 379.101 75.039 379.065 75.118 379.03 C 75.198 378.938 75.279 378.847 75.361 378.756 C 75.636 378.453 77.028 379.614 77.445 379.511 C 78.196 379.328 77.87 377.579 78.653 377.622 C 79.669 378.176 79.915 379.479 80.12 380.477 C 80.461 380.528 80.848 380.496 81.047 380.732 C 82.113 381.992 82.443 383.5 82.453 385.004 C 82.596 384.781 83.145 384.079 84.15 384.533 C 84.246 384.576 84.329 384.623 84.404 384.672 L 84.739 384.364 C 84.917 384.198 85.139 384.09 85.375 384.043 L 85.872 383.5 C 86.33 383.002 86.535 383.817 87.093 384.251 C 87.623 384.662 89.261 384.649 88.875 385.147 L 87.206 385.985 C 87.1 386.131 86.993 386.281 86.887 386.435 C 86.933 386.582 86.892 386.83 86.81 387.111 C 86.951 387.159 87.086 387.231 87.208 387.325 C 87.547 387.589 87.711 387.972 87.682 388.345 C 87.781 388.305 87.844 388.282 87.859 388.286 L 88.982 387.798 C 89.434 387.59 88.82 389.064 89.24 389.39 C 89.798 389.823 91.062 389.158 90.605 389.656 C 90.543 389.723 90.474 389.783 90.402 389.833 L 89.282 390.644 C 89.583 390.888 89.897 391.321 89.607 391.975 C 89.473 392.282 89.281 392.467 89.075 392.572 C 89.078 392.747 89.04 392.922 88.958 393.086 C 89.584 393.166 90.206 393.332 90.798 393.532 C 91.616 393.812 91.848 394.771 91.682 395.619 C 92.008 395.818 91.631 395.705 91.285 396.496 C 90.803 397.596 90.497 397.706 90.497 397.706 L 90.032 397.267 C 89.644 397.387 89.243 397.481 88.846 397.574 C 88.62 397.738 88.344 397.823 88.063 397.825 L 86.932 398.944 C 86.468 399.409 85.673 399.448 85.128 399.026 C 84.919 398.863 84.777 398.654 84.704 398.43 C 84.782 399.259 84.624 400.066 84.021 400.545 C 83.716 400.788 83.362 400.972 82.999 401.14 C 82.923 401.433 82.831 401.719 82.769 401.948 C 82.481 403.008 81.068 404.025 80.388 404.942 L 81.081 404.674 C 81.081 404.674 80.912 405.779 79.729 405.672 C 79.272 406.168 78.449 406.222 77.892 405.789 C 77.592 405.556 77.43 405.23 77.416 404.901 L 77.337 403.296 L 77.338 403.296 C 77.304 402.551 77.278 401.812 77.274 401.071 C 77.187 400.884 77.122 400.698 77.075 400.513 C 76.891 400.467 76.716 400.384 76.56 400.263 C 76.072 399.884 75.949 399.259 76.231 398.773 L 76.419 398.436 C 76.374 398.481 76.329 398.525 76.285 398.57 C 76.115 398.736 75.959 398.958 75.799 399.181 C 75.794 399.439 75.697 399.695 75.503 399.907 C 75.18 400.26 74.675 400.389 74.21 400.283 L 73.877 400.509 C 73.405 400.845 72.717 400.838 72.231 400.459 C 71.723 400.065 71.611 399.406 71.937 398.913 L 72.509 398.017 C 72.559 397.93 72.607 397.842 72.651 397.754 C 71.304 397.952 69.908 397.909 68.528 397.759 C 67.941 397.695 66.102 397.578 65.686 397.012 C 64.203 394.991 65.032 393.441 67.061 392.475 C 66.945 392.457 66.832 392.435 66.718 392.406 C 66.536 392.361 66.364 392.224 66.254 392.058 C 65.77 392.205 65.302 392.313 65.036 392.396 L 64.232 392.364 C 64.232 392.364 63.231 393.107 62.393 392.167 Z M 87.066 393.993 C 87.058 394.028 87.052 394.062 87.049 394.099 L 87.166 394.283 C 87.217 394.262 87.273 394.244 87.331 394.228 C 87.386 394.077 87.443 393.933 87.503 393.806 L 87.104 393.853 C 87.09 393.901 87.077 393.949 87.066 393.993 Z M 84.643 397.991 L 84.628 397.753 C 84.618 397.759 84.608 397.766 84.598 397.773 C 84.614 397.845 84.629 397.918 84.643 397.991 Z M 73.174 388.215 C 73.1 388.056 73.347 387.818 73.383 387.62 C 73.326 387.613 73.27 387.602 73.214 387.59 C 73.166 387.735 73.121 387.944 73.066 388.044 C 72.814 388.499 72.74 389.025 72.605 389.523 C 72.604 389.524 72.604 389.525 72.604 389.526 C 72.711 389.306 72.818 389.086 72.926 388.866 C 72.987 388.665 73.058 388.47 73.144 388.281 C 73.154 388.26 73.164 388.238 73.175 388.215 L 73.174 388.215 Z M 68.619 395.402 C 68.458 395.122 68.324 394.828 68.197 394.532 C 68.16 394.553 68.125 394.573 68.09 394.594 C 67.892 394.715 67.821 395.035 67.583 395.053 C 67.43 395.064 67.514 394.514 67.453 394.643 C 67.375 394.802 67.595 395.098 67.544 395.225 C 67.564 395.237 67.575 395.246 67.575 395.246 C 67.924 395.317 68.271 395.366 68.619 395.402 Z M 77.56 381.619 C 77.402 381.473 77.546 381.136 77.359 381.013 C 77.337 380.998 77.311 380.983 77.285 380.972 C 77.264 381.069 77.238 381.164 77.209 381.257 C 77.124 381.525 76.823 381.726 76.452 381.878 C 77.084 381.732 77.576 382.152 77.722 382.293 C 77.663 382.069 77.604 381.844 77.56 381.619 Z" style="fill: rgb(209, 213, 0); fill-rule: nonzero;"/>
  <path d="M 81.378 385.12 C 82.553 385.673 81.984 386.735 81.984 386.735 L 81.877 386.866 C 81.595 387.345 81.334 387.828 81.084 388.317 C 81.392 388.146 81.697 387.97 81.996 387.783 L 82.351 387.406 C 82.351 387.406 83.434 386.764 84.166 387.774 C 84.898 388.784 83.815 389.426 83.815 389.426 L 83.508 389.774 C 83.001 390.09 82.479 390.376 81.954 390.656 L 82.164 390.802 C 82.188 390.818 82.211 390.835 82.234 390.853 C 82.616 391.15 82.775 391.601 82.688 392.016 C 83.159 391.653 83.551 391.163 83.996 390.465 L 83.729 390.193 C 83.729 390.193 84.723 389.442 85.572 390.374 C 86.418 391.306 85.424 392.057 85.424 392.057 L 86.261 391.715 C 85.825 392.399 85.377 392.962 84.882 393.429 C 85.394 393.585 85.905 393.74 86.408 393.898 L 86.428 394.188 C 86.428 394.188 87.644 394.658 87.163 395.759 C 86.683 396.86 85.469 396.389 85.469 396.389 L 85.619 396.16 C 85.291 396.056 84.96 395.955 84.626 395.852 C 84.982 396.292 84.985 396.906 84.593 397.333 C 84.217 397.744 83.593 397.852 83.073 397.637 C 82.857 397.665 82.653 397.631 82.481 397.574 C 82.77 398.582 82.438 399.803 82.141 400.666 L 81.846 401.365 C 81.846 401.365 82.458 401.172 81.424 401.876 C 80.387 402.58 79.407 400.448 79.407 400.448 L 79.702 399.749 C 79.908 399.464 80.144 398.72 80.079 398.499 C 79.991 398.202 79.491 397.954 79.62 397.677 C 79.648 397.617 79.695 397.581 79.756 397.561 C 79.27 397.314 78.79 397.036 78.36 396.708 C 78.559 396.962 78.856 397.165 79.03 397.435 L 79.62 398.421 C 79.62 398.421 79.562 399.615 78.256 399.53 C 76.951 399.445 77.01 398.251 77.01 398.251 L 76.79 398.61 C 76.551 398.237 76.31 397.88 76.094 397.509 L 76.069 397.546 C 76.031 397.609 75.987 397.669 75.935 397.725 C 75.476 398.224 74.654 398.278 74.096 397.844 C 73.84 397.645 73.684 397.378 73.636 397.099 L 73.518 396.447 C 73.491 396.297 73.465 396.151 73.439 396.011 L 73.408 395.843 L 73.409 395.843 C 73.333 395.387 73.278 394.966 73.287 394.525 C 72.444 394.579 71.591 394.624 70.774 394.46 C 70.077 394.323 69.531 393.805 68.91 393.477 C 68.91 393.477 67.764 392.872 68.392 391.838 C 69.021 390.805 70.166 391.41 70.166 391.41 C 70.787 391.738 71.332 392.265 72.029 392.395 C 72.043 392.397 72.058 392.398 72.07 392.397 C 71.865 392.261 71.646 392.049 71.567 391.741 C 70.361 391.378 69.163 390.953 67.976 390.725 L 67.791 390.736 C 67.791 390.736 66.507 390.49 66.741 389.319 C 66.974 388.146 68.26 388.394 68.26 388.394 L 68.443 388.382 C 68.786 388.446 69.133 388.536 69.483 388.636 C 69.139 388.197 69.142 387.592 69.529 387.171 C 69.723 386.959 69.983 386.827 70.261 386.779 L 71.703 386.517 L 71.733 386.645 C 71.815 386.649 71.898 386.653 71.981 386.659 L 72.065 386.654 C 72.706 386.443 73.9 385.293 74.881 385.501 C 74.387 384.946 73.948 384.349 73.522 383.678 L 73.414 383.504 C 73.414 383.504 72.587 382.557 73.598 381.824 C 74.609 381.092 75.436 382.038 75.436 382.038 L 75.769 382.515 C 76.326 383.389 76.867 384.077 77.598 384.736 C 77.599 384.723 77.6 384.708 77.601 384.694 L 77.764 384.044 C 78.143 384.267 78.561 384.448 78.96 384.649 C 79.411 384.647 79.867 384.669 80.311 384.64 L 80.198 385.089 C 80.482 384.943 80.874 384.884 81.378 385.12 Z M 70.778 388.83 C 70.899 388.871 71.02 388.911 71.141 388.952 C 71.137 388.905 71.136 388.858 71.141 388.807 L 70.778 388.83 Z" style="fill: rgb(214, 124, 0); fill-rule: nonzero;"/>
  <path d="M 73.808 393.429 C 73.25 392.995 73.169 392.24 73.627 391.74 C 73.661 391.703 73.698 391.667 73.735 391.635 C 73.423 391.258 74.632 390.947 74.628 390.479 C 74.617 389.437 73.794 388.978 74.424 388.127 C 74.713 387.737 74.156 386.757 74.673 386.825 C 75.739 386.963 76.492 387.256 77.013 387.668 C 77.033 387.647 77.052 387.626 77.072 387.604 L 77.651 386.972 C 77.651 386.972 78.265 387.85 78.54 387.76 C 79.02 387.604 79.091 386.543 79.489 386.852 C 80.499 387.637 79.671 388.541 79.671 388.541 C 79.547 388.675 79.328 388.915 79.09 389.174 L 78.188 390.158 C 78.62 390.235 78.153 391.129 78.559 391.292 C 79.769 391.78 81.247 391.873 81.225 393.237 L 81.961 393.424 C 81.961 393.424 83.039 394.127 82.301 395.097 C 81.811 395.74 81.171 395.646 80.797 395.51 C 80.796 395.543 80.797 395.578 80.799 395.611 L 80.77 396.209 C 80.77 396.209 81.204 396.736 80.024 397.219 C 78.843 397.701 78.159 396.038 78.159 396.038 L 78.188 395.44 C 78.19 395.42 78.193 395.399 78.194 395.376 C 78.048 395.561 77.929 395.792 77.712 395.753 L 77.044 396.296 C 76.574 396.693 75.833 396.707 75.319 396.307 C 74.761 395.874 74.68 395.117 75.138 394.618 L 75.805 393.89 C 75.769 393.868 75.735 393.843 75.7 393.817 C 75.584 393.725 75.487 393.621 75.413 393.507 C 74.944 393.814 74.281 393.797 73.808 393.429 Z" style="fill: rgb(214, 56, 0); fill-rule: nonzero;"/>
  <path d="M 35.117 399.123 C 33.841 397.904 33.501 397.593 33.501 397.593 L 35.069 397.35 C 35.303 397.286 35.592 397.299 35.853 397.276 C 35.435 396.748 35.276 396.134 35.505 395.727 C 35.541 395.66 35.588 395.602 35.64 395.553 C 35.741 395.454 35.979 395.22 36.186 395.017 C 35.548 394.498 35.107 393.925 35.154 393.356 C 35.154 393.356 33.515 392.446 33.338 392.075 C 33.178 391.743 34.055 392.064 34.363 391.849 C 34.488 391.762 34.084 391.117 34.084 391.117 C 33.782 390.644 35.473 392.208 35.67 391.856 C 35.973 391.313 35.034 389.103 35.808 389.685 L 38.013 392.305 L 38.007 392.315 C 38.66 392.827 39.291 393.351 39.878 393.905 C 40.034 393.158 40.23 392.426 40.445 391.713 C 39.225 389.676 38.722 387.532 38.055 385.528 C 38.039 385.478 36.451 381.715 36.455 381.713 C 36.738 381.457 38.273 383.24 38.627 383.076 C 39.379 382.726 38.6 380.612 39.382 380.941 C 40.108 381.247 39.873 382.879 40.478 383.363 C 41.375 384.08 41.918 384.746 42.49 385.476 C 42.559 385.438 42.63 385.404 42.704 385.371 C 42.755 385.271 42.807 385.171 42.862 385.073 C 43.04 384.741 42.99 384.158 43.405 384.084 C 44.15 383.952 45.14 384.371 46.009 384.514 C 47.327 385.292 48.091 386.465 48.701 387.679 C 49.091 387.779 49.499 387.787 49.808 388.092 C 51.454 389.719 52.734 389.544 53.33 391.341 C 53.399 391.091 53.386 392.332 54.654 392.99 C 54.775 393.053 54.884 393.118 54.984 393.186 L 55.23 392.857 C 55.358 392.678 55.557 392.575 55.795 392.548 L 56.125 391.957 C 56.428 391.414 57.303 391.445 58.077 392.027 C 58.812 392.581 59.193 393.433 58.968 393.983 L 58.539 395.079 C 58.48 395.241 58.422 395.408 58.366 395.579 C 58.474 395.76 58.526 396.052 58.546 396.376 C 58.719 396.451 58.892 396.552 59.061 396.679 C 59.533 397.035 59.858 397.511 59.973 397.952 C 60.065 397.915 60.126 397.897 60.142 397.902 L 61.173 397.45 C 61.583 397.254 62.223 397.38 62.805 397.818 C 63.579 398.401 63.96 399.313 63.657 399.856 C 63.616 399.929 63.564 399.992 63.505 400.045 L 62.604 400.883 C 63.027 401.209 63.534 401.762 63.475 402.51 C 63.447 402.86 63.31 403.058 63.127 403.16 C 63.199 403.371 63.225 403.576 63.2 403.76 C 63.912 403.929 64.651 404.2 65.372 404.509 C 66.371 404.936 66.994 406.109 67.145 407.102 C 67.575 407.378 68.333 407.996 68.264 408.902 C 68.168 410.159 66.666 409.456 66.666 409.456 L 65.991 408.879 C 65.616 408.977 65.217 409.043 64.821 409.108 C 64.64 409.278 64.372 409.346 64.068 409.315 L 63.272 410.521 C 62.949 411.022 62.099 410.978 61.344 410.41 C 61.054 410.191 60.818 409.924 60.652 409.65 C 61.058 410.646 61.201 411.594 60.731 412.096 C 60.493 412.35 60.181 412.529 59.852 412.688 C 59.883 413.028 59.893 413.359 59.914 413.625 C 60.014 414.858 58.873 415.909 58.491 416.926 L 59.14 416.686 C 59.14 416.686 59.385 417.986 58.058 417.719 C 57.753 418.261 56.881 418.229 56.108 417.647 C 55.691 417.334 55.389 416.926 55.246 416.531 L 54.535 414.605 L 54.537 414.606 C 54.211 413.712 53.896 412.827 53.604 411.941 C 53.436 411.707 53.294 411.478 53.171 411.251 C 52.953 411.176 52.729 411.056 52.515 410.894 C 51.837 410.385 51.46 409.622 51.579 409.076 L 51.651 408.695 C 51.62 408.744 51.588 408.791 51.556 408.839 C 51.437 409.017 51.353 409.266 51.268 409.513 C 51.362 409.821 51.355 410.117 51.228 410.345 C 51.014 410.729 50.515 410.826 49.967 410.644 L 49.695 410.876 C 49.313 411.223 48.561 411.134 47.886 410.626 C 47.182 410.096 46.803 409.295 46.968 408.746 L 47.24 407.742 C 47.262 407.644 47.278 407.544 47.293 407.445 C 45.921 407.523 43.514 408.326 42.378 408.121 C 42 408.053 43.19 407.054 42.813 406.973 C 42.151 406.829 40.107 406.474 39.436 405.749 C 39.128 405.418 39.755 405.086 38.696 404.865 C 37.678 404.654 39.645 404.003 39.742 403.058 C 39.814 402.365 37.891 402.489 37.525 401.869 C 37.302 401.494 38.769 400.691 39.169 400.491 C 39.036 400.457 38.902 400.417 38.768 400.37 C 38.553 400.294 38.315 400.112 38.13 399.901 C 37.661 400.02 37.193 400.093 36.936 400.162 L 36.051 400.031 C 36.051 400.031 35.251 400.801 33.977 399.582 L 35.117 399.123 Z M 61.497 404.626 C 61.501 404.665 61.509 404.705 61.519 404.749 L 61.717 404.983 C 61.766 404.964 61.818 404.949 61.875 404.936 C 61.878 404.763 61.883 404.597 61.898 404.451 L 61.483 404.461 C 61.487 404.519 61.492 404.573 61.497 404.626 Z M 60.415 409.119 L 60.308 408.831 C 60.3 408.839 60.29 408.846 60.282 408.852 C 60.329 408.941 60.372 409.03 60.415 409.119 Z M 44.158 396.115 C 44.016 395.916 44.191 395.66 44.152 395.426 C 44.088 395.413 44.024 395.395 43.958 395.372 C 43.962 395.539 43.995 395.785 43.974 395.898 C 43.877 396.413 44.001 397.032 44.046 397.61 C 44.046 397.611 44.046 397.612 44.046 397.613 C 44.077 397.363 44.108 397.113 44.138 396.863 C 44.128 396.631 44.13 396.406 44.15 396.19 C 44.153 396.165 44.156 396.139 44.158 396.115 Z M 41.998 404.168 C 41.713 403.816 41.454 403.448 41.201 403.079 C 41.17 403.1 41.139 403.12 41.11 403.142 C 40.94 403.263 40.989 403.637 40.736 403.63 C 40.574 403.625 40.452 402.98 40.435 403.126 C 40.413 403.306 40.766 403.686 40.76 403.831 C 40.787 403.849 40.802 403.859 40.803 403.859 C 41.209 403.985 41.606 404.086 41.998 404.168 Z M 46.362 388.745 C 46.134 388.553 46.16 388.168 45.908 387.999 C 45.878 387.978 45.845 387.96 45.811 387.942 C 45.826 388.054 45.835 388.165 45.839 388.273 C 45.851 388.582 45.603 388.789 45.259 388.927 C 45.889 388.826 46.586 389.385 46.8 389.571 C 46.65 389.295 46.497 389.02 46.362 388.745 Z" style="fill: rgb(209, 213, 0); fill-rule: nonzero;"/>
  <path d="M 52.745 392.331 C 53.117 392.529 52.608 393.077 52.988 393.263 C 53.411 393.468 54.587 393.075 54.613 393.509 C 54.655 394.217 52.785 394.986 52.785 394.986 L 52.721 395.129 C 52.599 395.67 52.504 396.216 52.423 396.771 C 52.69 396.602 52.953 396.427 53.206 396.24 L 54.171 397.158 C 54.171 397.158 54.297 396.935 54.332 396.785 C 54.437 396.334 55.048 395.527 55.615 396.143 C 56.803 397.434 55.82 398.413 55.82 398.413 L 55.622 398.791 C 55.195 399.11 54.738 399.392 54.275 399.665 L 54.561 399.864 C 54.593 399.886 54.624 399.908 54.656 399.931 C 55.189 400.333 55.535 400.889 55.601 401.374 C 55.973 400.994 56.207 400.455 56.42 399.673 L 56.026 399.318 C 56.026 399.318 56.815 398.536 58.097 399.747 C 59.38 400.96 58.59 401.741 58.59 401.741 L 59.367 401.429 C 59.158 402.194 58.892 402.816 58.534 403.316 C 59.151 403.562 59.766 403.806 60.374 404.053 L 60.509 404.401 C 60.509 404.401 62.011 405.104 61.918 406.363 C 61.823 407.622 60.32 406.919 60.32 406.919 L 60.395 406.663 C 59.998 406.501 59.599 406.342 59.198 406.181 C 59.755 406.747 59.994 407.479 59.736 407.943 C 59.487 408.391 58.852 408.448 58.202 408.13 C 57.978 408.139 57.742 408.074 57.535 407.987 C 58.24 409.224 58.353 410.643 58.366 411.64 L 58.316 412.441 C 58.316 412.441 58.906 412.281 58.055 413.001 C 57.202 413.721 55.309 411.063 55.309 411.063 L 55.358 410.261 C 55.472 409.945 55.44 409.084 55.283 408.812 C 55.072 408.448 54.433 408.093 54.466 407.778 C 54.473 407.71 54.512 407.673 54.57 407.655 C 53.944 407.304 53.314 406.916 52.72 406.474 C 53.035 406.8 53.436 407.077 53.731 407.42 L 54.754 408.667 C 54.754 408.667 55.155 410.086 53.704 409.833 C 52.252 409.58 51.852 408.16 51.852 408.16 L 51.753 408.563 C 51.348 408.091 50.947 407.636 50.568 407.168 L 50.557 407.21 C 50.539 407.281 50.514 407.347 50.48 407.408 C 50.313 407.708 50.132 409.11 49.761 409.1 C 49.261 409.087 48.919 407.632 48.528 407.338 C 48.173 407.07 47.899 406.733 47.738 406.393 L 47.357 405.602 C 47.269 405.419 47.184 405.242 47.102 405.07 L 47.004 404.869 L 47.005 404.869 C 46.878 404.597 45.221 404.874 45.106 404.599 C 44.96 404.257 46.469 403.632 46.36 403.28 C 45.464 403.246 44.556 403.201 43.603 402.911 C 42.793 402.665 41.998 401.983 41.196 401.52 C 41.196 401.52 40.245 401.939 39.967 401.5 C 39.724 401.115 39.895 399.931 39.998 399.504 C 40.279 398.343 41.76 399.198 41.76 399.198 C 42.562 399.662 43.358 400.354 44.167 400.59 C 44.183 400.594 44.198 400.596 44.211 400.597 C 43.937 400.411 43.616 400.133 43.41 399.756 C 41.959 399.183 40.492 398.536 39.113 398.126 L 38.918 398.118 C 38.918 398.118 37.425 397.674 37.225 396.302 C 37.025 394.932 38.517 395.374 38.517 395.374 L 38.712 395.382 C 39.11 395.5 39.521 395.645 39.94 395.807 C 39.396 395.243 38.634 394.865 38.89 394.406 C 39.02 394.176 40.583 395.131 40.867 395.106 L 41.529 393.533 L 41.612 393.689 C 41.703 393.704 41.795 393.719 41.887 393.735 L 41.976 393.739 C 42.591 393.562 43.442 392.328 44.589 392.689 C 43.835 391.969 43.127 391.205 42.404 390.354 L 42.22 390.134 C 42.22 390.134 40.953 388.907 41.767 388.148 C 42.021 387.912 40.98 385.918 41.342 385.988 C 41.894 386.096 43.848 388.619 43.848 388.619 L 44.394 389.226 C 44.923 389.847 44.965 390.061 45.543 390.644 C 46.077 391.183 46.655 391.602 47.245 392.092 C 47.239 392.074 47.236 392.056 47.23 392.039 L 47.155 391.284 C 47.654 391.593 48.178 391.859 48.69 392.144 C 49.18 392.195 49.414 391.626 49.884 391.642 C 49.884 391.642 50.342 391.283 50.802 391.251 C 51.186 391.222 52.745 392.331 52.745 392.331 Z M 41.793 396.571 C 41.939 396.634 42.087 396.696 42.233 396.758 C 42.212 396.703 42.192 396.644 42.177 396.585 L 41.793 396.571 Z" style="fill: rgb(214, 124, 0); fill-rule: nonzero;"/>
  <ellipse style="stroke: rgb(0, 0, 0); fill: none; stroke-width: 7px;" cx="253.882" cy="532.047" rx="224.628" ry="219.706"/>
  <path d="M 1055.628 168.745 H 1251.962 L 1251.962 161.583 L 1326.319 172.75 L 1251.962 183.917 L 1251.962 176.754 H 1055.628 V 168.745 Z" bx:shape="arrow 1055.628 161.583 270.691 22.334 8.009 74.357 0 1@da1ae34c" style="stroke: rgb(0, 0, 0); transform-origin: 1055.62px 172.753px 0px;" transform="matrix(0.5, -0.866025, 0.866025, 0.5, -1003.54791, 249.490461)"/>
  <ellipse style="stroke: rgb(0, 0, 0); fill: none; stroke-width: 7px;" cx="457.692" cy="544.959" rx="428.981" ry="357.353"/>
  <path d="M 46.268 402.163 C 45.888 401.878 47.699 401.212 47.818 400.786 C 47.903 400.485 46.062 400.704 46.216 400.43 C 46.238 400.388 46.264 400.352 46.294 400.317 C 45.758 399.78 47.877 398.718 47.528 398.066 C 46.958 397.003 44.402 396.977 44.815 395.879 C 44.977 395.447 44.856 394.541 45.445 394.682 C 46.655 394.971 47.587 395.407 48.315 395.961 C 48.327 395.937 48.737 395.202 48.737 395.202 C 48.737 395.202 49.811 393.519 50.359 393.746 C 50.62 393.855 50.466 395.106 50.689 395.272 C 50.899 395.43 50.198 396.429 50.367 396.622 C 50.828 397.145 51.541 397.311 51.541 397.311 C 51.46 397.457 51.314 397.718 51.157 397.999 L 50.558 399.07 C 50.927 399.175 51.856 400.015 52.229 399.949 C 52.852 399.838 52.58 398.735 53.116 399.064 C 54.545 399.942 54.584 401.59 55.052 403.098 L 55.926 403.407 C 55.926 403.407 57.37 404.371 56.945 405.443 C 56.663 406.155 55.93 405.969 55.47 405.763 C 55.483 405.804 55.497 405.843 55.511 405.884 L 55.712 406.594 C 55.712 406.594 56.389 407.275 55.295 407.714 C 54.199 408.153 52.81 406.087 52.81 406.087 L 52.609 405.378 C 52.603 405.354 52.597 405.327 52.592 405.303 C 52.504 405.506 52.464 405.767 52.212 405.695 L 51.699 406.267 C 51.341 406.685 50.542 406.617 49.828 406.08 C 49.456 405.8 50.796 404.985 50.59 404.589 C 50.369 404.16 48.744 404.454 48.976 404.042 L 49.417 403.251 C 49.37 403.219 49.323 403.186 49.274 403.149 C 49.113 403.028 48.968 402.891 48.844 402.747 C 48.452 403.059 47.725 402.962 47.068 402.467 L 46.268 402.163 Z" style="fill: rgb(214, 56, 0); fill-rule: nonzero;"/>
  <path d="M 49.005 390.599 C 49.406 389.565 50.303 390.365 51.28 389.739 C 52.123 389.199 53.292 387.384 53.292 387.384 L 54.357 391.302 C 54.739 391.594 55.038 391.983 55.376 392.324 C 55.878 391.588 55.496 388.579 56.504 388.744 C 56.67 388.772 58.169 391.407 58.32 391.461 C 58.616 391.562 59.316 391.8 59.923 392.007 C 60.165 390.983 60.725 390.203 61.829 390.075 L 63.158 388.728 C 63.693 388.168 64.529 387.874 65.403 388.018 C 66.038 388.122 66.394 388.302 66.832 388.744 C 67.424 389.341 65.688 390.675 65.558 391.457 L 67.66 392.669 L 66.961 393.524 C 66.75 394.566 66.494 395.582 66.128 396.55 C 67.686 396.508 69.257 396.522 70.815 396.568 C 71.66 395.751 70.686 391.492 71.777 390.97 C 72.759 390.5 74.982 394.276 75.918 393.736 C 76.778 393.241 75.941 389.591 76.851 390.054 C 77.754 390.512 79.366 395.031 79.715 394.163 C 80.012 393.427 78.814 391.697 79.551 391.306 C 79.625 391.267 81.923 389.944 81.933 389.948 C 83.039 390.357 82.03 392.468 82.991 393.124 C 84.04 393.838 86.528 392.651 86.275 393.804 C 85.959 395.241 85.338 396.188 84.635 397.194 C 84.782 397.274 84.927 397.357 85.069 397.444 C 85.312 397.479 85.556 397.515 85.798 397.553 C 86.611 397.681 87.634 397.418 88.234 397.945 C 89.316 398.893 90.484 400.704 91.195 401.909 C 91.197 401.973 88.606 403.362 88.605 403.427 C 88.598 403.928 87.176 404 87.047 404.485 C 86.856 405.191 88.148 405.738 87.549 406.208 C 87.803 406.76 88.249 407.306 88.032 407.82 C 87.392 409.339 85.434 409.14 84.201 410.301 C 82.941 411.487 83.459 413.006 81.89 413.833 C 82.618 413.844 82.101 414.813 82.663 415.251 C 83.229 415.695 84.36 415.249 84.434 415.922 C 84.454 416.103 84.457 416.273 84.444 416.428 L 85.327 416.643 C 85.801 416.755 86.215 416.984 86.536 417.293 L 88.869 418.324 C 90.214 418.546 88.225 418.755 88.021 419.982 C 87.826 421.149 88.72 422.117 87.452 422.002 L 84.945 421.799 C 84.58 421.775 84.206 421.754 83.828 421.736 C 83.612 421.941 83.134 422.108 82.555 422.244 C 82.611 422.498 82.62 422.764 82.575 423.032 C 82.451 423.779 81.937 424.374 81.251 424.675 C 81.42 424.783 81.524 424.859 81.532 424.882 L 83.528 426.103 C 84.35 426.582 82.46 427.193 82.306 428.117 C 82.101 429.344 83.22 430.442 81.875 430.222 C 81.695 430.191 81.522 430.145 81.359 430.082 L 78.796 429.165 C 78.669 429.836 78.218 430.699 76.769 430.871 C 76.09 430.952 75.571 430.836 75.176 430.627 C 74.869 430.793 74.521 430.897 74.151 430.926 C 74.64 431.931 74.973 433.006 75.212 434.07 C 75.324 434.568 73.36 434.343 73.14 434.802 C 72.589 435.951 73.708 436.888 72.413 437.302 C 72.388 437.969 71.295 437.274 69.545 437.487 C 67.113 437.782 67.528 437.456 67.528 437.456 L 67.837 436.363 C 67.232 435.897 66.663 435.387 66.097 434.882 C 65.579 434.698 65.152 434.365 64.865 433.949 L 61.745 433.294 C 61.147 433.173 61.125 432.657 60.519 432.595 C 59.757 432.517 58.753 433.025 58.546 432.345 C 58.435 431.982 59.72 431.059 59.782 430.691 C 59.859 430.229 60.086 429.825 60.41 429.513 C 59.022 430.388 57.435 430.897 55.979 430.44 C 55.245 430.21 54.562 429.853 53.897 429.469 C 53.302 429.625 52.705 429.749 52.236 429.868 C 50.069 430.414 46.849 429.249 44.537 429.082 L 45.712 429.866 C 45.712 429.866 43.586 430.628 42.586 428.772 C 41.244 428.549 42.689 427.711 42.893 426.485 C 43.003 425.827 41.05 424.95 41.616 424.626 L 44.376 423.032 L 44.377 423.035 C 45.136 422.602 46.449 423.421 47.214 422.998 C 47.959 422.584 47.494 421.293 48.25 420.896 C 48.493 420.595 48.754 420.327 49.036 420.087 C 48.933 419.773 48.902 419.436 48.959 419.093 C 49.138 418.019 50.12 417.262 51.265 417.237 L 52.049 417.204 C 51.925 417.179 51.801 417.153 51.678 417.127 C 51.213 417.027 50.662 417 50.107 416.969 C 49.644 417.198 49.092 417.289 48.525 417.194 C 47.575 417.038 46.836 416.406 46.554 415.617 L 45.82 415.332 C 44.751 414.94 46.889 414.374 47.067 413.303 C 47.18 412.627 45.396 412.675 45.035 412.065 C 44.83 411.718 46.265 410.971 46.69 410.983 L 48.851 411.009 C 49.055 411.004 49.257 410.994 49.458 410.979 C 47.751 409.158 54.516 410.102 53.39 407.914 C 52.911 406.983 51.416 404.942 52 403.806 C 52.644 402.549 52.284 401.65 52.267 400.247 C 52.253 399.149 51.435 397.486 51.957 396.512 C 52.312 395.853 53.699 396.851 54.397 397.247 C 54.31 397.059 55.635 396.408 55.571 396.213 C 55.468 395.901 54.037 395.447 54.217 395.131 C 53.472 394.546 51.799 393.781 51.382 393.461 L 51.258 391.307 C 51.258 391.307 48.188 392.707 49.005 390.599 Z M 70.636 428.948 C 70.568 428.966 70.501 428.991 70.435 429.018 L 70.226 429.362 C 70.314 429.419 70.402 429.484 70.489 429.557 C 70.813 429.5 71.124 429.453 71.411 429.423 L 70.925 428.875 C 70.825 428.898 70.728 428.922 70.636 428.948 Z M 61.124 429.019 L 61.532 428.778 C 61.509 428.77 61.487 428.761 61.463 428.753 C 61.352 428.843 61.238 428.933 61.124 429.019 Z M 66.86 402.993 C 67.066 402.737 67.738 402.885 68.126 402.755 C 68.079 402.664 68.04 402.572 68.006 402.478 C 67.702 402.539 67.287 402.665 67.053 402.674 C 65.993 402.719 64.989 403.092 63.972 403.348 C 63.97 403.348 63.968 403.349 63.967 403.35 C 64.464 403.306 64.96 403.263 65.457 403.22 C 65.874 403.127 66.292 403.055 66.712 403.009 C 66.761 403.003 66.811 402.998 66.86 402.993 Z M 82.949 403.451 C 83.048 403.082 83.79 402.988 83.819 402.596 C 83.823 402.548 83.82 402.499 83.815 402.448 C 83.624 402.505 83.431 402.554 83.235 402.596 C 82.677 402.716 82.016 402.455 81.375 402.043 C 82.27 402.848 82.024 403.965 81.917 404.312 C 82.259 404.019 82.596 403.724 82.949 403.451 Z" style="fill: rgb(209, 213, 0); fill-rule: nonzero;"/>
  <path d="M 81.015 411.688 C 81.102 412.636 79.829 411.381 78.937 411.845 C 78.519 412.064 78.769 414.07 78.769 414.07 L 78.432 414.034 C 77.298 414.054 76.181 414.108 75.065 414.187 C 75.677 414.488 76.297 414.779 76.928 415.052 L 77.953 415.235 C 77.953 415.235 77.715 416.087 78.032 416.597 C 78.48 417.315 79.512 417.538 79.132 418.267 C 78.731 419.038 76.27 417.134 75.332 417.204 C 74.754 417.248 75.854 419.265 75.854 419.265 L 74.932 419.128 C 73.86 418.665 72.827 418.153 71.803 417.628 L 71.757 418.075 C 71.752 418.125 71.745 418.175 71.737 418.225 C 71.597 419.069 70.959 419.717 70.137 419.968 C 70.944 420.234 71.575 421.111 72.423 421.195 C 73.173 421.269 73.447 420.478 74.201 420.488 L 74.412 419.843 C 74.412 419.843 74.463 421.059 74.759 421.817 C 74.982 422.386 76.157 422.184 75.947 422.747 C 75.767 423.228 74.088 422.386 73.655 422.7 C 72.908 423.24 72.821 424.075 72.821 424.075 L 74.271 425.004 C 72.622 424.983 71.173 424.836 69.847 424.528 C 70.09 425.433 70.33 426.334 70.556 427.227 L 70.066 427.524 C 70.066 427.524 68.889 427.355 68.515 427.909 C 68.097 428.53 68.822 429.962 68.026 430.058 C 67.139 430.168 67.722 429.125 67.104 428.511 C 66.674 428.085 65.202 428.119 65.202 428.119 L 65.76 428.131 C 65.612 427.551 65.459 426.964 65.303 426.376 C 65.111 426.803 64.038 426.098 63.633 426.373 C 63.02 426.787 63.417 427.811 62.653 427.686 C 62.098 427.594 62.509 426.536 62.093 426.18 C 61.593 425.754 60.672 426.32 60.583 425.705 C 60.314 425.409 60.171 425.074 60.097 424.768 C 59.097 425.675 58.68 423.88 57.351 424.321 C 56.602 424.569 59.145 426.789 58.676 427.376 C 58.191 427.98 57.405 426.716 56.589 426.561 C 55.675 426.388 55.187 426.93 54.285 427.104 L 53.441 425.436 C 53.441 425.436 53.228 426.31 52.412 426.615 C 51.947 426.788 51.891 427.33 51.421 427.147 C 50.79 426.901 51.541 425.677 50.88 425.521 C 49.999 425.313 47.777 426.322 48.095 425.553 C 48.495 424.583 50.057 424.53 50.987 423.944 C 51.625 423.544 51.913 422.839 51.913 422.839 L 53.448 422.634 C 54.16 422.68 55.714 422.347 56.041 422.045 C 56.475 421.643 56.411 420.673 57.031 420.611 C 57.165 420.597 57.277 420.635 57.375 420.706 C 57.321 419.757 57.328 418.787 57.477 417.848 C 57.228 418.375 57.169 419.004 56.867 419.511 L 55.714 421.293 C 55.714 421.293 55.016 420.297 54.349 420.18 C 53.511 420.034 52.781 420.984 52.381 420.287 C 52.027 419.677 53.013 419.424 53.23 418.777 C 53.46 418.1 54.073 417.111 54.073 417.111 L 52.531 417.261 C 52.946 416.563 53.337 415.876 53.778 415.215 L 53.684 415.214 C 53.535 415.214 53.384 415.203 53.233 415.177 C 52.708 415.091 52.779 413.967 52.265 413.833 C 51.536 413.642 50.625 414.685 50.165 414.126 C 49.692 413.55 51.052 413.255 51.169 412.554 C 51.262 411.991 51.579 411.514 52.025 411.184 L 53.058 410.41 C 53.166 410.331 54.281 411.323 54.388 411.242 C 54.553 411.12 53.587 410.014 53.752 409.892 L 54.016 409.695 L 54.018 409.696 C 54.594 409.274 56.183 409.418 56.805 409.053 C 57.065 408.9 55.954 408.438 56.226 408.303 C 55.28 407.098 54.341 405.874 53.806 404.508 C 53.35 403.345 53.714 402.057 53.668 400.832 C 53.668 400.832 52.762 398.151 53.555 397.676 C 54.023 397.397 55.481 398.563 56.046 398.561 C 58.506 398.544 58.421 400.687 58.421 400.687 C 58.466 401.912 58.253 403.32 58.729 404.477 C 58.738 404.5 58.75 404.519 58.764 404.539 C 58.8 404.111 59.61 403.611 60.075 403.21 C 59.502 401.086 59.58 399.692 58.787 397.717 L 57.39 396.654 C 57.39 396.654 59.569 396.43 60.011 395.694 C 60.466 394.94 58.902 393.452 59.794 393.17 C 62.103 392.442 62.006 395.199 62.006 395.199 L 62.213 395.46 C 62.441 396.029 62.635 396.626 62.809 397.239 C 63.24 396.325 64.312 395.773 65.446 395.961 C 66.017 396.055 65.039 398.924 65.403 399.293 L 68.795 398.591 L 68.601 398.755 C 68.677 398.88 68.751 399.007 68.824 399.136 L 68.918 399.255 C 69.893 399.983 69.063 402.3 70.165 402.851 C 71.143 403.342 73.431 401.418 73.794 402.381 C 74.09 401.618 76.478 401.646 76.85 400.912 C 77.211 400.206 75.237 399.368 75.65 398.686 L 75.85 398.368 C 75.85 398.368 76.877 399.184 77.551 398.887 C 78.235 398.583 78.284 396.838 79.007 397.097 C 79.996 397.45 79.611 398.338 79.706 399.3 C 79.748 399.733 80.48 400.026 80.48 400.026 L 79.973 400.959 C 78.988 402.587 78.316 404.025 77.886 405.718 C 77.912 405.705 77.939 405.694 77.966 405.682 L 79.276 405.326 C 79.267 406.096 79.365 406.883 79.414 407.662 C 79.871 408.329 80.292 409.028 80.791 409.66 L 79.883 409.906 C 80.425 410.195 80.926 410.723 81.015 411.688 Z M 63.042 400.322 C 63.115 400.641 62.505 399.861 62.318 400.13 C 62.068 400.489 62.415 401.214 62.513 401.638 C 62.738 401.501 63.052 402.118 63.324 402.158 C 63.65 402.204 63.753 401.928 64.046 401.801 C 64.046 401.801 63.763 401.175 63.563 400.88 C 63.37 400.597 63.042 400.322 63.042 400.322 Z" style="fill: rgb(214, 124, 0); fill-rule: nonzero;"/>
  <path d="M 57.677 407.798 C 57.81 407 59.026 408.268 59.91 408.294 C 60.637 408.315 60.608 407.034 61.327 407.151 C 61.428 407.168 61.527 407.19 61.623 407.217 C 61.92 406.531 62.623 403.052 63.411 403.257 C 64.336 403.496 64.737 406.939 65.645 406.695 C 66.67 406.42 67.083 403.678 68.157 403.756 C 69.244 403.835 68.595 405.442 68.89 405.685 C 68.987 405.767 71.024 404.082 71.078 404.192 C 71.906 405.903 72.147 407.289 71.942 408.444 L 72.115 408.472 L 73.212 410.12 C 73.212 410.12 76.253 409.154 75.883 411.375 C 75.794 411.906 74.185 411.54 73.787 411.926 C 73.152 412.541 73.078 413.196 73.078 413.196 L 68.723 412.478 C 69.017 413.179 66.494 412.25 65.853 412.691 C 65.326 413.053 66.799 414.549 66.769 415.159 C 66.727 415.993 68.911 414.111 69.795 414.343 C 70.378 414.496 69.55 416.698 69.43 417.236 C 69.311 417.774 66.86 419.556 66.337 419.819 L 66.748 421.085 C 66.748 421.085 65.301 420.965 64.808 421.426 C 64.247 421.949 64.942 423.195 64.132 423.127 C 62.501 422.991 62.021 421.953 61.883 421.271 C 61.824 421.302 61.765 421.334 61.706 421.367 L 60.621 421.872 C 60.621 421.872 60.024 421.075 59.413 420.889 C 58.947 420.749 58.485 421.951 58.082 421.693 C 57.062 421.038 58.141 420.314 58.597 419.282 C 58.832 418.75 58.292 417.837 58.292 417.837 L 59.378 417.331 C 59.417 417.314 59.456 417.299 59.497 417.283 C 59.022 417.232 58.494 417.267 58.343 416.91 L 56.965 416.027 C 55.789 415.692 54.764 414.994 54.953 413.862 C 55.074 413.135 56.519 414.302 57.194 413.913 C 57.782 413.575 57.064 411.928 57.759 412.043 L 59.719 412.365 C 59.723 412.291 59.731 412.216 59.743 412.141 C 59.786 411.884 59.875 411.644 60.002 411.43 C 58.985 411.014 58.348 410.012 58.521 408.973 L 57.677 407.798 Z" style="fill: rgb(214, 56, 0); fill-rule: nonzero;"/>
  <rect x="59.047" y="82.757" width="92.38" height="49.414" style="fill: rgb(112, 110, 110); stroke: black; stroke-width: 3.8px; stroke-miterlimit: 2.31977;" transform="matrix(0.466158, -0.884702, 0.90914, 0.419778, -110.636002, 507.700989)"/>
  <rect x="61.259" y="42.493" width="95.843" height="25.372" style="fill: rgb(218, 205, 37); stroke: black; stroke-width: 3.8px; stroke-miterlimit: 2.31977; transform-origin: 109.18px 55.178px 0px;" transform="matrix(0.978135, -0.207973, 0.198671, 0.980112, 260.002999, 140.245137)"/>
  <path d="M 354.694 297.051 H 420.663 L 420.663 284.443 L 445.647 304.101 L 420.663 323.758 L 420.663 311.15 H 354.694 V 297.051 Z" bx:shape="arrow 354.694 284.443 90.953 39.315 14.099 24.984 0 1@b3f17a0d" style="stroke: rgb(0, 0, 0); transform-origin: 354.693px 304.101px 0px;" transform="matrix(0, -1, 1, 0, 15.005604, 10.036935)"/>
</svg>